<svg width="196" height="191" viewBox="0 0 196 191" fill="none" xmlns="http://www.w3.org/2000/svg">
<path d="M158.1 142.4C157.5 142.4 157.1 142.9 157.1 143.5C157.1 144.1 157.6 144.6 158.1 144.6C158.7 144.6 159.1 144.1 159.1 143.5C159.1 142.9 158.7 142.4 158.1 142.4Z" fill="white"/>
<path d="M161.5 152.2C161.5 152.8 162 153.3 162.5 153.3C163.1 153.3 163.5 152.8 163.5 152.2C163.5 151.6 163 151.1 162.5 151.1C161.9 151.1 161.5 151.6 161.5 152.2Z" fill="white"/>
<path d="M158.1 151.1C157.5 151.1 157.1 151.6 157.1 152.2C157.1 152.8 157.6 153.3 158.1 153.3C158.7 153.3 159.1 152.8 159.1 152.2C159.1 151.6 158.7 151.1 158.1 151.1Z" fill="white"/>
<path d="M165.8 152.2C165.8 152.8 166.3 153.3 166.8 153.3C167.4 153.3 167.8 152.8 167.8 152.2C167.8 151.6 167.3 151.1 166.8 151.1C166.3 151.1 165.8 151.6 165.8 152.2Z" fill="white"/>
<path d="M156.7 132.7L156.9 135.2L154.8 134.9V137.7L156.9 137.5L156.7 140.1H159.5L159.3 137.5L161.4 137.7V134.9L159.3 135.2L159.5 132.7H156.7Z" fill="white"/>
<path d="M159.9 141.6V150.5H168.5C167.8 145.9 164.3 142.3 159.9 141.6Z" fill="white"/>
<path d="M158.1 146.7C157.5 146.7 157.1 147.2 157.1 147.8C157.1 148.4 157.6 148.9 158.1 148.9C158.7 148.9 159.1 148.4 159.1 147.8C159.1 147.2 158.7 146.7 158.1 146.7Z" fill="white"/>
<path d="M161.7 158.1C161.4 158.1 160.7 160.3 161.4 161.9C161.8 162.7 162.6 163.1 163.3 162.9C164 162.7 164.2 162 164.2 161.5C164.4 159.8 162.8 158.1 161.7 158.1Z" fill="white"/>
<path d="M154.5 158.1C153.4 158.1 151.9 159.7 151.9 161.5C151.9 162 152.1 162.7 152.8 162.9C153.5 163.1 154.4 162.8 154.7 161.9C155.4 160.4 154.8 158.1 154.5 158.1Z" fill="white"/>
<path d="M158.1 156.9C157.2 156.9 155 161.4 156.7 163.7C157 164.1 157.6 164.4 158.1 164.4C158.7 164.4 159.2 164.2 159.5 163.7C161.2 161.5 159 156.9 158.1 156.9Z" fill="white"/>
<path d="M147.5 152.2C147.5 151.3 147.7 150.5 147.7 150.5H156.3V149.8V143.5V141.7C152.1 142.4 148.8 145.7 147.8 149.8C147.6 150.1 146.8 150.3 146.2 150.3C143 149.9 136.6 148.7 136.6 147.4C136.6 145.5 137.9 144.7 139.2 144.7C141 144.7 143 145.7 144.6 143.3C138.7 143.6 143.2 135.1 138.4 133.5C138.6 135.7 138.4 139.5 137.6 141.5C137.6 141.5 135.9 139.7 133.9 139C134 140.6 133.8 143.8 133 145.3C133 145.3 131 143.4 128.8 142.7C130.8 145.5 130.7 149.6 130.2 152.1C130 152.8 130.6 153.7 132.1 153.6C134.4 153.5 142.4 153.8 145.9 155.3C147 155.7 147.9 156.2 148.4 157C148.8 158 149.7 159.6 150.8 160.5C151.3 158.7 153.4 156.8 154.8 156.9C155.2 156.9 155.7 157.6 155.8 158.3C155.9 157.7 157 155.9 158.1 155.9C159.1 155.9 160.1 157.4 160.5 158.6C160.6 157.8 161.1 157 161.5 157C162.9 157 164.7 158.2 165.3 160.3C165.8 159.6 168.3 156.5 168.6 154.4H147.7C147.7 154 147.5 153.1 147.5 152.2Z" fill="white"/>
<path d="M152.8 152.2C152.8 152.8 153.3 153.3 153.8 153.3C154.3 153.3 154.8 152.8 154.8 152.2C154.8 151.6 154.3 151.1 153.8 151.1C153.2 151.1 152.8 151.6 152.8 152.2Z" fill="white"/>
<path d="M148.5 152.2C148.5 152.8 149 153.3 149.5 153.3C150.1 153.3 150.5 152.8 150.5 152.2C150.5 151.6 150 151.1 149.5 151.1C149 151.1 148.5 151.6 148.5 152.2Z" fill="white"/>
<path d="M66.1999 156.5C65.8999 156.8 64.9999 159.1 65.3999 160.5C65.5999 161.1 65.8999 161.3 66.3999 161.3C66.9999 161.3 67.2999 161 67.3999 160.4C67.5999 159 66.5999 156.8 66.1999 156.5Z" fill="white"/>
<path d="M73.6 162.7C73.1 163.2 72.6 163.6 72.4 163.8C72.6 164 73.1 164.3 73.8 164.3C74.2 164.3 74.5 164.2 74.9 164C75.6 162.9 74.9 161.7 74.6 161.4C74.4 161.7 74.1 162.2 73.6 162.7Z" fill="white"/>
<path d="M70.9 160C71.6 159.2 71.9 158.7 71.7 158.2C71.4 157.6 69.8 155.7 67.7 153.7C67.6 154.1 67.5 154.5 67.4 155C68.8 156.9 69.4 159 68.9 160.7C69.1 160.8 69.2 160.9 69.2 160.9C69.7 161 70.4 160.4 70.9 160Z" fill="white"/>
<path d="M73.6 160.1C73.7 159.8 73.6 159.5 73.5 159.3C73.4 159.2 73.4 159.2 73.4 159.2C73.3 159.2 73 159.5 72.7 159.9C72.5 160.2 72.2 160.5 71.9 160.9C71.6 161.3 71.2 161.6 71 161.8C70.7 162.1 70.4 162.4 70.4 162.5C70.4 162.5 70.4 162.6 70.5 162.6C70.6 162.7 70.8 162.8 71 162.8C71.3 162.8 71.9 162.7 72.8 161.7C73.3 161 73.5 160.4 73.6 160.1Z" fill="white"/>
<path d="M60.5 149.6C60.5 149.6 60.2 149.9 60.1 150.2C60.5 150.2 61.1 150.3 61.5 150.4C61.5 150 61.4 149.4 61.5 148.9C61 149 60.6 149.4 60.5 149.6Z" fill="white"/>
<path d="M65.8 150.2C65.8 150.2 69.9 153.9 71.3 155.2C71.6 155.5 72.1 155.6 72.5 155.3C72.8 155.2 73.1 155 73.4 154.9C77.5 153.4 84.3 153.3 86.8 153.4C88.3 153.5 88.8 152.6 88.7 151.9C88.2 149.6 88.1 145.4 90.1 142.5C88 143.2 85.9 145.1 85.9 145.1C85.2 143.6 84.9 140.4 85 138.8C83.1 139.5 81.3 141.3 81.3 141.3C80.5 139.3 80.3 135.5 80.5 133.3C75.7 134.9 80.2 143.4 74.3 143.1C75.9 145.5 77.9 144.5 79.7 144.5C81 144.5 82.5 145.3 82.3 147.2C82.1 148.6 74.3 150.3 71.1 150.3C68.9 150.3 67.4 149.6 66.3 148.1C65.8 147.4 65.2 147 64.6 147.1C63.8 147.2 63 148 63 149.8C63 151.1 63.5 153.9 65 153.9C66.2 153.8 66.2 151.6 65.8 150.2Z" fill="white"/>
<path d="M57.9 148.9C58.1 149 58.3 148.9 58.4 148.8C57.8 149.6 57.8 150.1 58.1 150.4C58.5 150.8 58.8 150.1 59.8 149C60.8 147.9 61.5 147.6 61.1 147.2C60.8 146.9 60.3 146.9 59.5 147.6C59.6 147.4 59.6 147.2 59.6 147C59.3 146 57.7 144.8 56.9 144.8C56.8 144.8 56.7 144.8 56.5 144.9C56.9 144.3 56.8 143.8 56.5 143.6C56.2 143.3 56.1 143.5 55.8 143.9C55.8 143.6 55.8 143.3 55.5 142.9C54.2 141 47.5 134.6 46 134C45.1 133.6 44.8 134.1 44.8 134.1C44.8 134.1 44.3 134.4 44.7 135.4C45.4 136.9 51.8 143.6 53.7 144.8C54.1 145.1 54.4 145.1 54.7 145.1C54.3 145.4 54.2 145.6 54.4 145.9C54.6 146.1 55.1 146.2 55.7 145.8C55.7 145.9 55.6 146 55.6 146.2C55.7 147 57 148.6 57.9 148.9Z" fill="white"/>
<path d="M62.7 153.6C62.7 152.9 61.4 151.8 59.9 151.8C57.7 151.8 56.7 153.2 56.7 153.9C56.7 155.3 58 155.4 58.4 155.5C60 155.6 62.5 154 62.7 153.6Z" fill="white"/>
<path d="M60.8 157C60.2 157.8 60 158.5 60.1 159.2C60.3 160.1 61.1 160.4 61.9 160.4C62.7 160.4 63.4 160 63.8 159.4C64.7 158.1 64.7 155.1 64.4 154.7C63.6 154.8 61.8 155.7 60.8 157Z" fill="white"/>
<path d="M41.2 126C40.6 125.4 39.3 126.3 38.5 125.9C38.8 124 40.2 126 41.5 124.6C42 124 41.7 123.2 41.4 122.9C40.8 123.5 40 123.3 39.9 123C41.4 119.5 38.5 115.6 35.7 116.1C36.2 116.8 36.4 119.4 36.2 120.1C37.3 120.9 36.5 122.7 35.3 122.1C34.5 121.8 33.1 119.8 34.7 118.4C34.7 117.9 33.8 117.8 32.9 119C33.6 116.8 29.4 117.5 28.6 118C28.1 118.9 27.6 123.2 29.7 122.4C28.6 123.4 28.7 124.3 29.2 124.3C30.5 122.6 32.4 124 32.8 124.8C33.3 126 31.6 126.8 30.8 125.8C30.1 126.1 27.7 126 26.9 125.4C26.5 128.3 30.4 131.1 33.8 129.5C34.1 129.6 34.3 130.4 33.8 131C34.1 131.3 34.9 131.6 35.4 131C36.7 129.6 34.7 128.3 36.6 127.9C37 128.7 36.2 130 36.8 130.7C37.8 131.7 39.1 129.8 40.3 129.7C40.4 128.3 42.2 127 41.2 126ZM30.8 121.5C30.8 121.5 30.1 121 30.9 120.2C31.7 119.4 32.2 120 32.2 120C32.2 120 32.9 121.6 33.2 122.4C32.4 122.2 30.8 121.5 30.8 121.5ZM37.2 126.5C36.8 126.6 35.8 127.4 35.4 126.9L33.2 124.7L34.3 123.5L35.4 122.3L37.6 124.5C38.1 125.1 37.3 126.1 37.2 126.5Z" fill="white"/>
<path d="M41.7999 130.1C41.5999 130.1 41.2999 130.1 41.0999 130.4C40.8999 130.6 40.7999 131 40.8999 131.4C40.9999 131.8 41.1999 132.3 41.5999 132.6C41.9999 133 42.5999 133.3 43.0999 133.3C43.2999 133.3 43.5999 133.3 43.7999 133C44.2999 132.5 43.9999 131.5 43.2999 130.8C42.7999 130.4 42.2999 130.1 41.7999 130.1Z" fill="white"/>
<path d="M35.5 123.5L34.9001 124.1L34.3 124.7C34.3 124.7 35.5 126.3 36.5 125.7C37.1 124.7 35.5 123.5 35.5 123.5Z" fill="white"/>
<path d="M151.5 117.5C151.5 117.8 149.8 118.7 148.7 116.4C147.5 116.2 146.3 115.8 145.5 115.5C146.9 118.3 148.1 120.6 150.1 121.9C153 123.8 157.6 123.4 159.1 121.3C156.6 119.9 153.5 116.4 151.9 112.9C151.6 113.7 151 115.1 150.5 116C150.7 116.5 151.1 117.1 151.5 117.5Z" fill="white"/>
<path d="M179.3 74C182.6 72.6 187.1 69.5 189.2 67.3C189.5 67.7 190.2 69.5 187.8 71.5C186.1 73 182.5 74.6 179.8 75.7C178.6 77.5 176.3 79.5 173 81.7C179.3 80.7 187 78.2 190.7 74.5C197.8 67.6 194 59.1 193.1 57.3C188.5 63 179.8 69 171.6 72.3C174.4 72.7 177.3 73.3 179.3 74Z" fill="white"/>
<path d="M174.1 61.2C178.2 57.8 182.7 51 183.4 48.6C184.3 49.3 184.8 51.2 183.5 53.5C181.3 57.4 177.4 60.7 174 63.4C173.9 65.9 172.8 68.8 171.7 70.9C176.7 67.6 182.4 62.5 185 59.2C188.4 54.8 189.8 50.4 189.1 46.1C189.3 41.2 185.8 36.2 184.3 35C183.4 40.4 177.9 49.6 173.1 54.8C173.7 56.5 174 59 174.1 61.2Z" fill="white"/>
<path d="M170.9 92.8C171.9 93.9 172.9 95.3 173.6 96.5C177.4 97.3 182 97.1 182 97.1C182 97.1 181.7 99.1 179.1 99.2C178 99.3 174.4 98.7 172.9 98.2C172.3 98.5 169.5 99.1 166.7 99.5C170.7 100.9 176.4 102.4 180.1 102.4C180.5 102.4 180.8 102.4 181.1 102.4C186.9 101.9 189.9 96.5 190 93.4C188.3 93.7 185.3 94 182.2 94C179.7 94 174.7 93.8 170.9 92.8Z" fill="white"/>
<path d="M195 77.6C189.8 80.3 180.6 83.2 173.4 83.1C175.2 84.2 177 85.5 178.1 86.6C181.1 86.4 185.3 85.5 187.7 84.5C187.7 84.9 187.8 86.8 185 87.7C183.1 88.3 180.1 88.3 178 88.4C176.3 89.5 173.6 90.6 171.4 91.4C173.4 91.7 175.9 91.9 178.2 91.9C182.1 91.9 185.5 91.5 187.7 90.8C189.6 90.1 196.1 87.2 195 77.6Z" fill="white"/>
<path d="M167 105C169.2 106 171.5 106.7 173.5 106.9C173.5 106.9 173.2 108.8 170.1 108.4C168.4 108.2 166.3 106.9 165.9 106.6C164.6 106.8 161.7 106.7 160.6 106.5C164 108.9 169.2 111.7 173.6 112.1C173.8 112.1 174 112.1 174.3 112.1C178.9 112.1 182.5 107.5 183.4 105.3C178.7 105.2 170.9 103.4 166.1 100.7C166.4 101.8 166.8 103.3 167 105Z" fill="white"/>
<path d="M159.1 111.1C160.3 112.4 162.3 113.3 162.3 113.3C162.3 113.3 161.8 114.3 160.6 114.3C160.2 114.3 159.8 114.2 159.4 113.9C158.6 113.4 157.5 112.2 157.5 112.2C156 112 154.6 111.8 153.2 111.3C155.6 114.3 159.6 118 163.9 119C164.5 119.2 165.2 119.2 165.8 119.2C169.7 119.2 172.7 116.4 173.6 114.6C169.2 114 162.9 110.7 159.6 107.4C159.5 108.8 159.4 110.1 159.1 111.1Z" fill="white"/>
<path d="M130.6 160C132.7 160 134.2 159.1 135.1 157C132.2 158.4 128.9 157.6 123.1 155.8C123.1 155.8 120.8 156.8 119.6 156.9C123.1 158 128.3 159.6 129.1 161.6C129.4 163.3 128.5 163.5 128.5 163.5C126.4 161.1 124.1 159.7 119 158.2C119 159.1 118.8 159.8 118.8 159.8C118.8 159.8 117.7 160.1 115.4 159.7C117.4 161.4 122.2 165.4 122.8 169.9C123.2 172.9 121.1 173 121.1 173C120.8 168.5 118.9 165.7 114.6 161C114.6 161 113.9 162.1 113 162.6C113 162.6 111.4 162.3 110.1 161.5C110.6 167.4 110.9 181.7 110.6 184C110.4 185.6 109.4 186.3 109.4 186.3C109.4 186.3 108.5 185.6 108.2 184C107.9 181.7 108.2 167.4 108.7 161.5C107.4 162.4 105.8 162.6 105.8 162.6C104.9 162 104.2 161 104.2 161C100 165.7 98 168.5 97.7 173C97.7 173 95.6 172.9 96 169.9C96.6 165.4 101.4 161.4 103.4 159.7C101.1 160.1 100 159.8 100 159.8C100 159.8 99.8 159.2 99.8 158.2C94.7 159.7 92.4 161.2 90.3 163.5C90.3 163.5 89.3 163.2 89.7 161.6C90.6 159.6 95.7 158 99.2 156.9C98 156.8 95.7 155.8 95.7 155.8C89.9 157.6 86.5 158.4 83.7 157C84.6 159.1 86.1 160 88.2 160C85.5 161 82.7 163.7 82 166.5C84 173.8 90.3 176 90.3 176C88.7 172.5 89.4 165.5 98.9 160.7C93 166.5 90.8 171.8 92.3 176.8C93.7 181.4 98.4 183.2 101.9 183.3C99.4 175.7 100.5 168.8 105.7 163.4C103.5 169.4 100.4 187.8 109.3 190.9C118.2 187.8 115.1 169.4 112.9 163.4C118 168.9 119.1 175.7 116.7 183.3C120.2 183.2 124.8 181.4 126.3 176.8C127.9 171.8 125.6 166.5 119.7 160.7C129.2 165.5 129.9 172.5 128.3 176C128.3 176 134.6 173.8 136.6 166.5C136.1 163.7 133.3 161 130.6 160Z" fill="white"/>
<path d="M69 121.9C70.9 120.6 72.2 118.3 73.6 115.5C72.8 115.8 71.6 116.2 70.4 116.4C69.2 118.6 67.6 117.8 67.6 117.5C68 117.1 68.4 116.5 68.7 116C68.2 115.1 67.6 113.7 67.3 112.9C65.6 116.4 62.6 119.9 60.1 121.3C61.4 123.3 66.1 123.7 69 121.9Z" fill="white"/>
<path d="M45.9 81.8C42.6 79.6 40.3 77.6 39.1 75.8C36.4 74.7 32.8 73.1 31.1 71.6C28.7 69.6 29.5 67.8 29.7 67.4C31.8 69.6 36.4 72.7 39.6 74.1C41.6 73.3 44.5 72.7 47.2 72.4C39.1 69.2 30.3 63.1 25.7 57.4C24.8 59.2 21 67.7 28.1 74.6C31.9 78.2 39.6 80.8 45.9 81.8Z" fill="white"/>
<path d="M47.3 70.8C46.2 68.7 45.1 65.8 45 63.3C41.6 60.6 37.8 57.3 35.5 53.4C34.2 51.2 34.7 49.2 35.6 48.5C36.3 50.9 40.8 57.7 44.9 61.1C44.9 58.9 45.3 56.4 45.9 54.5C41.1 49.3 35.6 40.2 34.7 34.7C33.2 35.9 29.7 40.9 29.9 45.8C29.3 50.1 30.7 54.5 34 58.9C36.6 62.5 42.3 67.5 47.3 70.8Z" fill="white"/>
<path d="M45.4 96.5C46.1 95.3 47.1 93.9 48.1 92.8C44.3 93.9 39.3 94.1 36.7 94.1C33.6 94.1 30.6 93.9 28.9 93.5C29.1 96.6 32 102 37.8 102.5C38.1 102.5 38.4 102.5 38.8 102.5C42.4 102.5 48.2 101 52.2 99.6C49.4 99.2 46.6 98.6 46 98.3C44.5 98.7 41 99.3 39.8 99.3C37.2 99.2 36.9 97.2 36.9 97.2C36.9 97.2 41.7 97.3 45.4 96.5Z" fill="white"/>
<path d="M31.4 90.8C33.6 91.5 37 91.9 40.9 91.9C43.2 91.9 45.7 91.7 47.7 91.4C45.5 90.7 42.8 89.5 41.1 88.4C38.9 88.4 36 88.3 34.1 87.7C31.3 86.8 31.3 84.9 31.4 84.5C33.8 85.5 37.9 86.4 41 86.6C42.1 85.5 43.9 84.2 45.7 83.1C38.5 83.2 29.3 80.3 24.1 77.6C22.9 87.2 29.4 90.1 31.4 90.8Z" fill="white"/>
<path d="M44.7 112.2C44.9 112.2 45.1 112.2 45.4 112.2C49.8 111.8 55 109 58.4 106.6C57.3 106.8 54.5 106.9 53.1 106.7C52.6 107 50.6 108.3 48.9 108.5C45.8 108.9 45.5 107 45.5 107C47.5 106.8 49.8 106.1 52 105.1C52.2 103.4 52.6 102 52.9 100.9C48.1 103.6 40.3 105.5 35.6 105.5C36.6 107.6 40.2 112.2 44.7 112.2Z" fill="white"/>
<path d="M53.2 119.3C53.8 119.3 54.5 119.2 55.1 119.1C59.3 118.1 63.4 114.4 65.8 111.4C64.4 111.8 63 112.1 61.5 112.3C61.5 112.3 60.4 113.6 59.6 114C59.2 114.2 58.8 114.4 58.4 114.4C57.2 114.4 56.7 113.4 56.7 113.4C56.7 113.4 58.6 112.5 59.9 111.2C59.7 110.2 59.5 108.9 59.5 107.5C56.2 110.9 49.9 114.1 45.5 114.7C46.3 116.5 49.4 119.3 53.2 119.3Z" fill="white"/>
<path d="M107.9 10.5C107.9 11.4 108.6 12.2 109.5 12.2C110.4 12.2 111.1 11.4 111.1 10.5C111.1 9.6 110.4 8.8 109.5 8.8C108.6 8.8 107.9 9.6 107.9 10.5Z" fill="white"/>
<path d="M108.4 6.9H110.6L110.4 4.3L112.8 4.5V2.4L110.4 2.7L110.6 0H108.4L108.6 2.7L106.2 2.4V4.5L108.6 4.3L108.4 6.9Z" fill="white"/>
<path d="M100.7 33.3C100.9 33.4 101.2 33.4 101.5 33.4H117.4C117.7 33.4 118 33.4 118.2 33.3C118.7 33.1 119 32.7 119.1 32.1H99.8C99.9 32.7 100.2 33.1 100.7 33.3Z" fill="white"/>
<path d="M118.2 30.9C118.4 30.9 118.5 30.8 118.5 30.6V29.4C118.5 29.2 118.4 29.1 118.2 29.1H100.8C100.6 29.1 100.5 29.2 100.5 29.4V30.6C100.5 30.8 100.6 30.9 100.8 30.9H118.2Z" fill="white"/>
<path d="M120 27.9C120.4 27.3 122.7 23 122.7 18.7C122.7 14.8 117.8 12.6 114.9 12.5C114.6 18.1 112.4 26.9 109.5 26.9C106.8 26.9 104.5 18.2 104.1 12.5C101.2 12.6 96.3 14.8 96.3 18.7C96.3 23.1 98.5 27.4 99 27.9H120Z" fill="white"/>
<path d="M109.5 24.1C110.8 24.1 112.6 19.8 113 15.8C113 15 111.7 13.7 109.5 13.7C107.3 13.7 106 15 106 15.8C106.4 19.5 108.2 24.1 109.5 24.1Z" fill="white"/>
<path d="M134.7 89.4C134.7 88.9 134.3 88.4 133.7 88.4H85.4C84.9 88.4 84.4 88.8 84.4 89.4V122.5V122.6V122.8C84.4 122.8 84.3 124.5 85.3 126.6C86.4 129 90.4 133 95.7 135.7C103.1 139.5 107.5 142.5 109.6 144.2C111.8 142.5 116.1 139.4 123.5 135.7C128.8 133 132.8 129 133.9 126.6C134.9 124.5 134.7 122.7 134.7 122.7V89.4ZM118.4 101.5L118.5 101.8C119.2 104.2 119.6 106.7 119.9 109.2C121.9 110.8 123.7 112.4 125.2 114.1C128.2 110.7 129.7 107.5 129.8 105H129.7C128.3 105 127.2 103.9 127.2 102.5C127.2 102 127.4 101.6 127.6 101.2C126.3 100.5 124.6 100.3 123.3 100.3C122.1 100.3 120.9 100.4 119.5 100.7C119.4 100.7 119.4 100.7 119.3 100.8L118.9 100.9L119 100.6C119.1 100.3 119.3 99.9 119.3 99.7V99.6H119.4C123.4 98.9 126.5 99.2 128.5 100.4C128.9 100.2 129.3 100 129.8 100C131.2 100 132.3 101.1 132.3 102.5C132.3 103.5 131.7 104.3 131 104.7C131.1 107.5 129.3 111.2 126 115C126.2 115.2 126.3 115.4 126.5 115.6C126.6 115.7 126.7 115.9 126.8 116L126.9 116.1L126.8 116.2C126.6 116.4 126.5 116.6 126.3 116.8L126.2 116.9L126.1 116.8H126C125.9 116.7 125.8 116.5 125.7 116.4C125.6 116.2 125.4 116.1 125.3 115.9C124.9 116.3 124.5 116.7 124.1 117.1L123.8 117.4C123.2 117.8 122.6 117.9 122.1 117.7L121.9 117.6L122.1 117.5C123.1 116.6 123.9 115.8 124.6 115C123.3 113.6 121.8 112.2 120.2 110.9C120.3 112.3 120.4 113.7 120.4 115C120.4 116.2 120.3 117.5 120.2 119.1V119.2H120.1C119.9 119.3 119.6 119.5 119.2 119.7L119 119.8V119.5C119.1 117.9 119.2 116.4 119.2 115C119.2 114.5 119.2 114 119.2 113.6V113.3C119.2 112.4 119 109.5 118.7 107.7H118.6V107.6C118.4 106 118 104.4 117.7 102.9V102.8L117.8 102.7L117.9 102.6C118.1 102.4 118.3 102.2 118.4 102V101.5ZM102 97.7C104 93 106.7 90.4 109.6 90.4C112.5 90.4 115.2 93 117.2 97.7L117.3 97.8L117.2 97.9C117.1 98 116.8 98.1 116.4 98.3L116.3 98.4L116.2 98.3C114.4 94.1 112 91.7 109.6 91.7C107.2 91.7 104.8 94.1 103 98.3L102.9 98.4L102.8 98.3C102.4 98.1 102.1 98 102 97.9L101.9 97.8L102 97.7ZM101.3 99C102 99.4 103.8 100.3 105.7 99.7C107.4 99.2 109.6 99.2 109.6 99.2C109.6 99.2 111.8 99.2 113.5 99.7C115.4 100.3 117.2 99.4 117.9 99C118 98.9 118.2 99 118.1 99.2C117.9 100 117.2 102.1 114.3 102.8C111.5 103.5 110.2 106.7 109.8 108C109.8 108.2 109.5 108.2 109.5 108C109.1 106.7 107.8 103.5 105 102.8C102 102.1 101.3 100.1 101.2 99.2C101 99 101.2 98.9 101.3 99ZM106.1 107C106.6 107 107.1 106.8 107.5 106.6C107.8 107.1 108 107.6 108.1 107.9C107.5 108.2 106.9 108.5 106.2 108.5C104.1 108.5 102.3 106.8 102.3 104.6C102.3 104.1 102.4 103.6 102.6 103.2C103 103.4 103.4 103.6 103.9 103.8C103.8 104.1 103.7 104.4 103.7 104.7C103.7 105.9 104.8 107 106.1 107ZM105 104.6C105 104.4 105 104.3 105.1 104.2C105.7 104.5 106.3 104.9 106.7 105.5C106.5 105.6 106.3 105.7 106.1 105.7C105.5 105.7 105 105.2 105 104.6ZM106.1 109.7C107 109.7 107.9 109.4 108.7 109C108.9 109.2 109.2 110 109.6 110C109.9 110 110.2 109.2 110.5 109C111.3 109.5 112.2 109.7 113.1 109.7C114.5 109.7 115.7 109.1 116.7 108.2C116.7 108.2 116.7 108.3 116.8 108.3C117.3 109.8 117.3 111.9 117.2 112.7C117.1 113.5 116.9 114.4 116.7 115.1C116.4 116.1 116.1 116.8 116.1 116.8C116.1 116.8 116 117 115.9 117.4C115.6 118.1 115.1 119.5 114.4 121C112.9 120.1 111.1 119.6 109.3 119.6C107.6 119.6 106 120 104.6 120.8C104 119.5 103.5 118.2 103.2 117.5C103 117.1 102.9 116.8 102.9 116.8C102.9 116.8 102.5 115.9 102.2 114.8C102 114.1 101.8 113.4 101.8 112.7C101.7 112.1 101.7 110 102.2 108.4C102.3 108.2 102.4 107.9 102.5 107.7C103.1 109 104.5 109.7 106.1 109.7ZM113 107C114.3 107 115.4 105.9 115.4 104.6C115.4 104.3 115.3 104 115.2 103.7C115.7 103.5 116.1 103.3 116.5 103.1C116.7 103.6 116.8 104 116.8 104.5C116.8 106.6 115.1 108.4 112.9 108.4C112.2 108.4 111.5 108.2 110.9 107.8C111 107.4 111.2 107 111.5 106.5C112 106.9 112.5 107 113 107ZM112.4 105.4C112.8 104.9 113.4 104.4 114 104.1C114.1 104.2 114.1 104.4 114.1 104.5C114.1 105.1 113.6 105.6 113 105.6C112.7 105.7 112.5 105.6 112.4 105.4ZM89.3 99.8C89.8 99.8 90.2 100 90.6 100.2C91.9 99.4 93.6 98.9 95.8 98.9C97 98.9 98.2 99 99.6 99.2H99.8V99.3C99.9 99.5 100 99.9 100.1 100.2L100.2 100.5L99.8 100.4C99.7 100.4 99.5 100.3 99.4 100.3C98.1 100.1 96.9 100 95.8 100C94.4 100 92.7 100.2 91.4 100.9C91.6 101.3 91.8 101.7 91.8 102.2C91.8 103.6 90.7 104.7 89.3 104.7C89.4 107.1 91 110.3 93.9 113.8C95.4 112.1 97.2 110.5 99.2 108.9C99.5 106.4 99.9 104 100.6 101.5L100.7 101.2L100.9 101.4C101.1 101.6 101.2 101.8 101.4 102C101.5 102.1 101.5 102.1 101.5 102.1L101.6 102.2V102.3C101.2 103.8 100.9 105.4 100.7 107V107.1H100.6C100.4 108.3 100.3 109.9 100.2 111.5C100.1 112.6 100.1 113.6 100.1 114.5C100.1 115.7 100.2 116.9 100.3 118.4V118.6L100.1 118.5C99.8 118.4 99.5 118.3 99.3 118.3H99.2V118.2C99.1 117.1 99 115.8 99 114.5C99 113.1 99.1 111.7 99.2 110.4C97.6 111.7 96.1 113.1 94.8 114.5C95.9 115.7 97.2 116.9 98.7 118.2L98.9 118.4L98.6 118.5C98.1 118.6 97.6 118.6 97.1 118.4C95.8 117.3 94.8 116.3 94 115.4C93.8 115.6 93.7 115.8 93.5 116L93.4 116.2C93.2 116.3 92.9 116.4 92.7 116.5L92.6 116.6L92.5 116.5C92.4 116.4 92.4 116.4 92.3 116.3C92.2 116.3 92.2 116.2 92.1 116.2L92 116.1L92.1 116C92.5 115.5 92.9 115 93.3 114.6C90 110.8 88.3 107.2 88.3 104.4C87.5 104 86.9 103.1 86.9 102.1C86.7 101 87.8 99.8 89.3 99.8ZM117.6 130.7C116.1 134.7 114.1 137.4 112 138.6C111.8 139.8 110.8 140.7 109.5 140.7C108.2 140.7 107.2 139.8 107 138.6C104.8 137.4 102.9 134.7 101.4 130.8L101.3 130.7L102.4 130.4V130.5C103.7 133.9 105.3 136.2 107 137.4C107.4 136.4 108.3 135.7 109.4 135.7C110.5 135.7 111.4 136.4 111.8 137.4C113.5 136.2 115.1 133.9 116.4 130.6V130.5H116.5C116.8 130.5 117.1 130.6 117.3 130.6H117.5L117.6 130.7ZM107.3 130.5C107.3 129.7 107.6 127.6 107.9 126.8C108.3 126.5 108.9 126.3 109.5 126.3C110.2 126.3 110.8 126.5 111.3 126.9C111.6 127.7 111.8 129.7 111.8 130.5C111.8 131.3 109.9 131.9 109.6 132C109.2 131.9 107.3 131.4 107.3 130.5ZM132.9 122.5C132.8 122.7 132.6 122.8 132.4 122.9C132.2 123 131.9 123 131.6 123.1H131.4C131 123.1 130.6 123 130.3 122.9C130.2 122.8 130.1 122.8 130 122.7C129.3 122.8 128 123.2 127.6 123.4C127.8 123.4 129.5 123.6 130.8 124.5C131.4 124.8 132.5 125.1 132.9 125.1C132.9 125.3 130.9 126.7 127.2 125.9L126.2 125.7C124.5 125.2 122.8 125 121.1 125.2C121.3 125.3 121.5 125.3 121.6 125.4C122.1 125.6 122.5 125.8 122.9 126C123 126 123 126.1 123 126.1C123.1 126.1 123.2 126.1 123.3 126.1C123.5 126.1 123.6 126.2 123.8 126.2C124 126.3 124.2 126.4 124.4 126.5C124.7 126.7 124.9 126.9 125.1 127.1C125.2 127.2 125.3 127.4 125.3 127.5C125.4 127.8 125.3 128.1 125.1 128.4C124.4 129.2 123.7 129.2 122.9 128.4C122.9 128.4 122.8 128.3 122.8 128.2C122.7 128.1 122.4 127.8 122.3 127.4C122.3 127.3 122.2 127.2 122.2 127.1H122.1C121.8 126.8 121.5 126.6 121.1 126.5C120.4 126.2 119.7 126 119.1 125.9C118.9 125.9 118.8 125.9 118.6 125.8C119.2 126.2 119.7 126.6 120 127.1L120.1 127.2C120.5 127.8 120.4 128.4 120.7 128.9C121.3 130.2 121.5 130.2 122 130.7C121.5 130.9 118.5 130.8 117 128.8C116.9 128.7 116.9 128.6 116.8 128.5C116.5 127.8 116.2 126.9 116 126.4C115.8 125.8 116.1 125.3 115.8 125.1C115.4 124.9 115.2 125.2 115.2 125.2C115.2 125.2 115.2 125.2 115.1 125.3L115 125.4C114.9 125.5 114.8 125.6 114.8 125.7L114.7 125.8C114.6 125.9 114.6 126 114.6 126L114.5 126.1C114.5 126.2 114.4 126.2 114.4 126.2L114.3 126.3C114.2 126.4 114.1 126.4 114 126.3L113.9 126.4C113.9 126.4 113.8 126.5 113.7 126.5C113.5 126.6 113.3 126.6 113.1 126.6C112.9 126.6 112.7 126.5 112.7 126.3C112.7 126.2 112.7 126.1 112.8 126H112.7C112.6 126 112.5 126.1 112.3 126.1C112.1 126.1 112 126 111.9 125.9C111.8 125.8 111.8 125.6 111.9 125.5C112 125.4 111.9 125.4 111.9 125.4C111.8 125.5 111.6 125.6 111.5 125.7C111.4 125.8 111.2 125.7 111.1 125.6C111 125.5 110.9 125.4 110.9 125.2V125V124.9V124.8C110.9 124.8 110.9 124.8 110.9 124.7H110.8H110.7C110.7 124.7 110.7 124.7 110.6 124.7C110.3 124.6 110 124.6 109.8 124.5H109.7C109.7 124.5 109.7 124.5 109.6 124.5C109.4 124.6 109.1 124.7 108.8 124.8C108.8 124.8 108.8 124.8 108.7 124.8H108.6C108.5 124.8 108.5 124.8 108.4 124.9C108.4 124.9 108.4 124.8 108.3 124.8C108.3 124.8 108.3 124.7 108.2 124.7C108.3 124.6 108.3 124.5 108.3 124.5V124.4C108.3 124.4 108.3 124.4 108.2 124.4C108.1 124.4 107.9 124.4 107.8 124.4C107.8 124.5 107.8 124.6 107.7 124.7L107.6 124.8C107.6 124.9 107.6 125 107.6 125V125.1V125.2C107.6 125.3 107.6 125.5 107.5 125.6C107.4 125.7 107.2 125.7 107.1 125.7C107 125.7 107 125.6 106.9 125.6C106.8 125.6 106.8 125.5 106.7 125.5C106.7 125.5 106.7 125.5 106.6 125.4C106.6 125.4 106.6 125.4 106.5 125.3C106.5 125.3 106.5 125.2 106.4 125.2V125.3C106.4 125.3 106.4 125.3 106.4 125.4L106.5 125.5C106.5 125.5 106.6 125.6 106.6 125.7C106.7 125.8 106.6 126 106.6 126.1C106.5 126.3 106.3 126.3 106.1 126.3C106.1 126.3 106 126.3 105.9 126.3C105.8 126.3 105.8 126.2 105.7 126.2C105.8 126.3 105.8 126.4 105.8 126.6C105.8 126.8 105.6 126.9 105.4 126.9C105.3 126.9 105.1 126.9 105 126.9C105 126.9 104.9 126.9 104.9 126.8C104.9 126.8 104.8 126.7 104.7 126.7C104.6 126.6 104.6 126.6 104.5 126.6C104.4 126.7 104.3 126.7 104.2 126.6L104.1 126.5C104 126.4 103.9 126.3 103.9 126.2V126.1C103.9 126.1 103.9 126.1 103.9 126V125.9L103.8 125.8L103.7 125.7C103.2 125.3 102.7 126.7 102.7 126.7C100.8 130.5 96.5 131.2 96.5 131C96.5 130.9 97.5 130.5 97.8 129.1C98 128.3 98 128.1 98.4 127.4C98.5 127.3 98.5 127.2 98.6 127.1C98.9 126.7 99.3 126.4 99.8 126.1C99.6 126.1 99.5 126.1 99.3 126.2C98.7 126.3 98 126.5 97.3 126.8C97 126.9 96.6 127.2 96.3 127.4C96.3 127.4 96.2 127.4 96.2 127.5C96.2 127.6 96.2 127.7 96.1 127.8C96 128 95.9 128.3 95.7 128.5C95.7 128.6 95.6 128.6 95.5 128.7L95.4 128.8C94.7 129.6 93.9 129.6 93.2 128.9C93.1 128.8 93.1 128.7 93.1 128.6C93 128.3 93 128.1 93 127.8C93.1 127.6 93.2 127.4 93.3 127.2C93.4 127 93.6 126.9 93.8 126.8C94 126.7 94.2 126.6 94.4 126.5C94.5 126.5 94.7 126.4 94.9 126.4C95 126.4 95.1 126.4 95.2 126.4C95.2 126.3 95.3 126.3 95.3 126.3C95.5 126.2 95.7 126.1 95.9 126C96.1 125.9 96.3 125.8 96.5 125.7C96.6 125.7 96.7 125.6 96.8 125.6C95.2 125.5 93.5 125.7 91.9 126.2C91.6 126.3 91.3 126.4 90.9 126.4C88.9 126.9 85.2 125.8 85.2 125.6C85.2 125.4 86.1 125.4 87.3 124.8C88 124.4 88.6 124 89.2 123.9C89.7 123.8 90.7 123.7 91 123.7C90.6 123.5 88.8 123.2 88.2 123.1C88.1 123.2 88 123.2 87.9 123.3C87.5 123.5 87.1 123.5 86.7 123.5C86.4 123.5 86.1 123.4 85.9 123.3C85.7 123.2 85.5 123.1 85.3 122.9C85.2 122.7 85 122.4 85.1 121.9C85.3 121 86.1 120.7 87 121C87.5 121.2 87.9 121.4 88.2 121.7C88.3 121.8 88.3 121.8 88.4 121.9C89 122 89.7 122.2 90.5 122.6C91.3 122.9 91.9 123.1 92.4 123.2C92.3 123.1 92.1 123 91.9 122.9C91.8 122.8 91.6 122.7 91.4 122.6C91.2 122.5 91 122.4 90.8 122.3C89.6 121.7 88.5 121.2 87.6 120.2C86.9 119.5 86.8 118.9 86.6 118.3C86.3 116.6 85.5 115.7 85.7 115.6C85.8 115.4 88.6 116.8 89.6 117.9C90.3 118.7 90.4 119.3 90.6 119.8V119.9C90.8 120.5 91.4 121.1 92.3 121.7C92.4 121.8 92.5 121.9 92.7 121.9C92.5 121.6 92.3 121.3 92.1 121C92.1 120.9 92.1 120.9 92 120.8C91.9 120.7 91.8 120.7 91.7 120.6C91.6 120.5 91.5 120.4 91.4 120.3C91.3 120.1 91.2 119.9 91.1 119.7C90.9 119.1 90.8 118.6 91 118.2C91.1 118 91.3 117.7 91.8 117.6C92.6 117.4 93.2 117.9 93.5 118.9C93.5 119.1 93.5 119.4 93.5 119.6C93.5 119.8 93.5 120 93.4 120.1C93.4 120.2 93.4 120.2 93.3 120.3L93.4 120.4C93.8 121.7 94.8 122.7 95.9 123.4C94.5 122.2 93.8 119.5 93.9 119.4C94.1 119.3 95.4 120.1 96.6 120.5C97.3 120.8 97.8 121.1 98.4 121.4C98.8 121.6 99.1 121.9 99.5 122.2C99.8 122.5 100.1 122.7 100.3 123L100.4 123.1C100.6 123.3 100.8 123.5 100.9 123.6C101 123.7 101.2 123.8 101.3 123.9C101.7 124.1 102.2 123.9 102.2 123.9C102.3 123.9 102.5 123.8 102.8 123.8C102.8 123.8 102.8 123.7 102.9 123.7C103 123.6 103 123.6 103 123.6C103.2 123.4 103.4 123.3 103.6 123.3C103.6 123.2 103.6 123.2 103.6 123.1C103.7 122.8 103.9 122.5 104.2 122.3C104.3 122.3 104.4 122.2 104.5 122.2C104.6 122.2 104.6 122.2 104.7 122.2C104.8 122.2 104.8 122.2 104.9 122.2C105 122.2 105.1 122.2 105.1 122.2C105.2 122 105.3 121.9 105.5 121.8C105.5 121.8 105.5 121.8 105.6 121.8C106 121.6 106.6 121.7 106.9 122C107.1 122.2 107.2 122.4 107.2 122.6C107.2 122.6 107.2 122.7 107.2 122.8C107.2 122.9 107.2 123 107.2 123.1C107.2 123.2 107.2 123.4 107.3 123.5C107.6 123.5 107.8 123.5 108.1 123.5H108.2C108.2 123.5 108.2 123.5 108.3 123.5C108.4 123.5 108.6 123.5 108.7 123.6C108.9 123.6 109.1 123.7 109.3 123.7C109.5 123.6 109.7 123.6 109.8 123.6C109.9 123.6 110.1 123.5 110.2 123.5C110.2 123.5 110.2 123.5 110.3 123.5H110.4C110.5 123.5 110.6 123.5 110.7 123.5C110.7 123.3 110.8 123.1 110.8 122.9C110.8 122.7 110.8 122.5 110.9 122.4C110.9 122.3 111 122.2 111.1 122.1C111.2 122 111.2 122 111.3 121.9C111.6 121.7 112.1 121.6 112.4 121.8L112.5 121.9C112.7 122 112.8 122.1 112.8 122.3C112.9 122.3 113.1 122.3 113.2 122.3C113.3 122.3 113.4 122.3 113.4 122.4C113.5 122.4 113.5 122.4 113.6 122.5C113.9 122.7 114.1 123 114.2 123.3V123.4H114.3C114.4 123.4 114.5 123.4 114.6 123.4H114.7C114.7 123.4 115.7 123.4 116 123.5L117 123.6C117.1 123.5 117.2 123.4 117.4 123.2C117.6 122.9 117.9 122.7 118.2 122.4C118.5 122.1 118.9 121.8 119.3 121.6C119.9 121.2 120.6 121.1 121.3 120.8C123.3 119.9 123.5 118.8 123.7 118.9C123.9 119 123.2 122.3 121.9 123.5C123 122.8 124 121.8 124.4 120.6C124.4 120.6 124.4 120.5 124.5 120.5C124.5 120.4 124.4 120.4 124.4 120.3C124.4 120.1 124.3 120 124.3 119.8C124.3 119.6 124.3 119.4 124.3 119.1C124.6 118 125.2 117.6 126 117.8C126.5 117.9 126.7 118.2 126.8 118.4C127 118.8 127 119.3 126.7 119.9C126.6 120.1 126.5 120.3 126.4 120.5C126.3 120.7 126.2 120.8 126.1 120.9C126 121 125.9 121 125.8 121.1C125.8 121.2 125.8 121.2 125.8 121.3C125.6 121.6 125.4 121.9 125.1 122.3C125.2 122.2 125.4 122.1 125.5 122C126.5 121.2 127.1 120.7 127.2 120.1C127.4 119.5 127.5 118.9 128.2 118.2C129.1 117.2 129.3 116.9 130.5 116.3C130.8 116.2 132.1 115.8 132.2 116C132.3 116.2 131.2 116.6 130.8 118.7C130.6 119.3 130.5 120.3 129.8 121C129 121.9 128.3 122.1 127.1 122.7L126.9 122.8C126.7 122.9 126.4 123 126.2 123.2C125.9 123.4 125.6 123.5 125.4 123.7C126 123.6 126.6 123.4 127.4 123C128.1 122.7 128.8 122.5 129.5 122.3C129.5 122.2 129.6 122.1 129.7 122.1C129.9 121.8 130.3 121.6 130.9 121.5C131.9 121.2 132.6 121.6 132.8 122.4C133.2 122 133 122.3 132.9 122.5Z" fill="white"/>
<path d="M167.6 82.5C170.6 81.1 175.6 77.8 177.6 75.4C174.8 74.5 169.2 73.9 166 73.8C172.6 69.3 172.8 59.7 170.9 52.7C169.4 58.3 165.4 62.8 162.7 65.6C162.9 68.3 162.1 73.1 160.6 76C162.8 76.8 165.3 78.1 167.1 79.4C165.9 80.9 163.3 83.3 161.7 84.5C163.1 85.9 165.4 88.6 166.4 90.1C164.9 91.2 161.6 92.5 159.9 93.1C160.7 94.8 161.9 97.9 162.3 100.1C160.4 100.4 157.7 100.6 154.9 100.6C155 102.7 154.7 105.9 154.4 107.8C151.8 107.6 148.8 106.5 147.4 105.9C146.7 108.7 144.9 111.5 144.8 111.7C142.3 109 140 107.9 137.8 108V106.2C140 106.1 142.3 107.1 144.1 108.8C144.9 107.4 145.7 104.7 146 103.3C147.6 104.2 150.1 105.1 152.4 105.4C152.6 103.5 152.8 100.9 152.5 98.8C154.7 99 157.2 99 159.6 98.5C159.2 96.7 157.7 93.7 156.7 92.1C159 91.5 161.7 90.4 163.1 89.6C162 88.1 159.9 85.7 158.5 84.5C160.2 83.4 162.7 81.3 163.7 80C162 78.9 159.5 77.6 157.5 76.9C160.2 73 160.9 65.3 160.3 61.8C157.8 69.9 150.7 75.9 146.4 78.7C146.2 78.8 146 79 145.8 79.2C145.6 79.4 144.8 80.4 145.2 81.6C145.3 81.9 145.3 82.3 145.4 82.5C145.7 84.1 145.7 86.5 143.4 88.7C141.5 90.6 139 90.6 137.6 90.5V86.2C137.6 85.6 137.1 85.2 136.6 85.2H133.7L132.4 83.7C132.4 83.7 133.8 83.8 135.4 83.6C137 83.5 138.7 82.7 138.7 82.7C138.7 82.7 136.9 82.7 136.1 82.5C135.2 82.3 133 81.5 131.2 79.4C130.6 78.6 130 77.8 129.6 77C127.9 75.6 126.3 73.7 125.1 71.1C124.4 69.4 123.9 66.8 123.8 65.1C123.3 65.6 122.6 66.3 121.8 67.3C120.5 69.1 119.8 71.7 119.8 71.7L119.3 73.6L118.3 71.9C118.2 71.8 116.9 69.6 116.7 66.6C116.6 65.3 116.7 64 116.8 63C116.3 63.3 115.8 63.6 115.2 64C112.8 65.7 111.5 67.6 111.5 67.6C110.2 69.2 109.6 70.5 109.3 71.3C109 70.6 108.4 69.3 107.1 67.6C107.1 67.6 105.8 65.7 103.4 64C102.8 63.6 102.3 63.3 101.8 63C101.9 64 102 65.3 101.9 66.6C101.7 69.6 100.3 71.8 100.3 71.9L99.3 73.6L99 71.9C99 71.9 98.3 69.3 97 67.5C96.3 66.5 95.6 65.8 95 65.3C94.8 67 94.3999 69.6 93.6999 71.3C92.5999 73.9 90.8999 75.8 89.1999 77.2C88.7999 78 88.2999 78.9 87.5999 79.6C85.7999 81.7 83.5999 82.5 82.6999 82.7C81.7999 82.9 80.0999 82.9 80.0999 82.9C80.0999 82.9 81.9 83.7 83.4 83.8C85 83.9 86.4 83.9 86.4 83.9L85.0999 85.4H82.1999C81.5999 85.4 81.1999 85.9 81.1999 86.4V90.7C79.7999 90.8 77.3 90.8 75.4 88.9C73.1 86.7 73.1 84.3 73.4 82.7C73.5 82.4 73.5999 82.1 73.5999 81.8C73.9999 80.5 73.2 79.5 73 79.4C72.8 79.2 72.6 79.1 72.4 78.9C68 75.9 61 69.9 58.5 61.8C57.9 65.3 58.5999 73 61.2999 76.9C59.2999 77.7 56.7999 78.9 55.0999 80C56.1999 81.2 58.6999 83.3 60.2999 84.5C58.8999 85.7 56.8 88 55.7 89.6C57.1 90.4 59.8999 91.5 62.0999 92.1C61.0999 93.8 59.5 96.8 59.2 98.5C61.6 99 64.1 99 66.3 98.8C66 100.9 66.2 103.5 66.4 105.4C68.7 105.1 71.1 104.2 72.8 103.3C73.1 104.7 73.9999 107.4 74.6999 108.8C76.4999 107.1 78.8 106.2 81 106.2V108C78.9 108 76.5 109.1 74 111.7C73.9 111.6 72.2 108.8 71.4 105.9C70 106.6 67 107.6 64.4 107.8C64 105.9 63.8 102.7 63.9 100.6C61.1 100.6 58.5 100.4 56.5 100.1C56.8 97.9 58 94.8 58.9 93.1C57.2 92.5 53.9 91.2 52.4 90.1C53.4 88.6 55.6999 85.9 57.0999 84.5C55.4999 83.2 52.9 80.9 51.7 79.4C53.5 78 56.1 76.8 58.2 76C56.7 73.1 55.7999 68.3 56.0999 65.6C53.3999 62.8 49.4 58.3 47.9 52.7C46 59.7 46.1999 69.4 52.7999 73.8C49.5999 73.9 44 74.5 41.2 75.4C43.1 77.7 48.2 81.1 51.2 82.5C48.9 83.4 44.6 85.7 42.9 87.3C45.2 88.7 50.1 90.3 52.5 90.8C51.1 91.9 48.2999 95.1 47.2999 96.9C49.1999 97.5 53.1999 98 55.7999 98.2C54.9999 99.9 54.0999 102.9 53.7999 104.9C55.0999 105 59.2999 104.8 61.2999 104.3C61.0999 106 61.2 109.1 61.5 110.4C63.6 110.1 66.5 109.3 67.8 108.7C68.2 110.2 69.5999 113.5 70.0999 114.3C70.9999 114.1 72 113.8 73 113.5C75.7 112.5 78.8 113.7 80 116.3C82 120.9 81.2 126.3 77.4 125.2C73 125.9 76 131.5 73.5 133.3C76.9 135.6 77.9999 130.1 82.1999 131C81.7999 133.1 81.7999 136.8 82.0999 138.3C83.4999 137.2 85.3999 136.4 86.6999 136.3C86.3999 137.5 86.0999 140.3 86.5999 142.1C87.4999 141.4 93.0999 140 93.0999 140C93.0999 140 90.9 144.5 92.3 148.8C93 149.4 98.1999 146.9 98.1999 145.4C98.2999 147.2 96.2 151.2 92.9 151.9C96.5 155.4 99.6999 155.3 100.1 155.3C100.6 155.3 101.1 155.2 101.6 155C101.3 156 101.2 157.3 101.4 158.2C101.6 158.2 101.8 158.2 102.1 158.2C103 158.2 103.8 158.1 104.5 157.7C104.6 158.6 105 159.8 105.7 160.6C105.8 160.8 106 160.9 106.1 161C106.9 161 108.9 160.1 109.3 159.5C109.7 160.1 111.7 161 112.5 161C112.7 160.9 112.8 160.7 112.9 160.6C113.6 159.8 114 158.7 114.1 157.7C114.8 158.1 115.6 158.2 116.5 158.2C116.7 158.2 116.9 158.2 117.2 158.2C117.4 157.3 117.3 156.1 117 155C117.5 155.2 118 155.3 118.5 155.3C119 155.3 122.1 155.4 125.7 151.9C122.4 151.2 120.2 147.2 120.4 145.4C120.5 147 125.6 149.4 126.3 148.8C127.7 144.5 125.5 140 125.5 140C125.5 140 131.1 141.4 132 142.1C132.5 140.3 132.2 137.5 131.9 136.3C133.2 136.4 135.1 137.2 136.5 138.3C136.8 136.8 136.9 133.1 136.4 131C140.6 130.1 141.6 135.6 145.1 133.3C142.6 131.5 145.7 126 141.2 125.2C137.3 126.3 136.6 120.9 138.6 116.3C139.7 113.7 142.9 112.5 145.6 113.5C146.6 113.9 147.6 114.1 148.5 114.3C149 113.5 150.4 110.3 150.8 108.7C152.2 109.2 155.1 110.1 157.1 110.4C157.4 109.1 157.4 106 157.3 104.3C159.4 104.8 163.6 105 164.8 104.9C164.6 102.9 163.6 99.9 162.8 98.2C165.3 98.1 169.3 97.5 171.3 96.9C170.3 95.2 167.5 92 166.1 90.8C168.4 90.3 173.4 88.7 175.7 87.3C174.2 85.7 170 83.4 167.6 82.5ZM135.4 127.3C135.3 127.6 135.1 127.9 134.9 128.3C134.8 128.4 134.8 128.5 134.7 128.6C134.5 128.8 134.4 129.1 134.2 129.3C134.1 129.4 134 129.6 133.9 129.7C133.6 130 133.4 130.3 133.1 130.7C132.9 130.9 132.7 131.1 132.5 131.3C132.3 131.5 132.2 131.6 132 131.8C131.8 132 131.5 132.3 131.2 132.5C131.1 132.6 130.9 132.8 130.8 132.9C130.1 133.5 129.4 134 128.7 134.6C127.7 135.3 126.7 136 125.6 136.6C125.2 136.8 124.8 137 124.4 137.2C115.5 141.8 111 145.3 109.7 146.4H109.6C108.3 145.3 103.9 141.7 94.9 137.2C94.5 137 94.0999 136.8 93.6999 136.6C92.5999 136 91.4999 135.3 90.5999 134.6C89.7999 134.1 89.1 133.5 88.5 132.9C88.3 132.8 88.1999 132.6 88.0999 132.5C87.7999 132.3 87.6 132 87.3 131.8C87.1 131.6 87 131.5 86.8 131.3C86.6 131.1 86.3999 130.9 86.1999 130.7C85.8999 130.4 85.6 130 85.4 129.7C85.3 129.6 85.1999 129.4 85.0999 129.3C84.8999 129.1 84.6999 128.8 84.5999 128.6C84.4999 128.5 84.4 128.4 84.4 128.3C84.2 128 84 127.6 83.9 127.3C82.7 124.7 82.9 122.6 82.9 122.6V122.5V87.8C82.9 87.2 83.4 86.8 83.9 86.8H86.9H109.7H132.5H135.5C136.1 86.8 136.5 87.3 136.5 87.8V122.5V122.6C136.4 122.5 136.6 124.7 135.4 127.3Z" fill="white"/>
<path d="M134.3 31.8C135 31.8 135.6 31.2 135.6 30.5C135.6 29.8 135 29.2 134.3 29.2C133.6 29.2 133 29.8 133 30.5C133 31.2 133.6 31.8 134.3 31.8Z" fill="white"/>
<path d="M134.3 39.2C135.2 39.2 135.9 35.8 135.9 34.2C135.9 33.3 135.2 32.7 134.3 32.7C133.4 32.7 132.7 33.3 132.7 34.2C132.7 35.9 133.4 39.2 134.3 39.2Z" fill="white"/>
<path d="M133.5 27H135.2L134.9 24.9L137.1 25.1V23.3L134.9 23.6L135.2 21.4H133.5L133.7 23.6L131.6 23.3V25.1L133.7 24.9L133.5 27Z" fill="white"/>
<path d="M126.6 43.2C127.2 43.3 127.8 43.4 128.4 43.5C128.5 43.5 128.5 43.5 128.6 43.5H128.7H128.9C129 43.5 129.1 43.5 129.2 43.5H129.5C129.7 43.5 129.9 43.5 130 43.5C130.1 43.5 130.2 43.5 130.4 43.5C130.6 43.5 130.7 43.5 130.9 43.5C132.5 43.4 134.2 43.1 135.6 42.7C137.1 42.4 138.9 42 140.6 41.9H140.7C140.8 41.9 140.9 41.9 141 41.9H141.1H141.2H141.3H141.4H141.5H141.6H141.7H141.9H142C142.1 41.9 142.1 41.9 142.2 41.9C142.7 40.2 143.2 38.1 143.2 37C143.2 34.6 141.9 32 137.3 31.2C137.3 34.1 135.9 41.1 134.2 41.1H134C132.3 41.1 130.9 34.1 130.9 31.2C126.3 32 125 34.6 125 37C125 38.3 125.6 41 126.2 42.8C126.5 42.9 126.5 43.1 126.6 43.2Z" fill="white"/>
<path d="M150.5 30.6C150.6 30.6 149.2 27.3 151.4 26.5C153.6 25.6 150.6 26.2 152.2 21.7C154 16.4 158 17.7 158 17.7C155.2 15.5 153.1 15.7 151.5 16.9C150.6 17.6 149.2 19.2 148.2 22.4C146.9 26.5 148.3 30.2 150.5 30.6Z" fill="white"/>
<path d="M160.7 22.9C160.9 29.5 171.9 32.2 171.9 32.2C171.9 32.2 165.5 27.6 166.8 24.3C166.8 24.3 171 26.1 175.8 25.3C165.6 23.2 168.9 20 166.5 17.4C164 14.7 159.9 14.4 158.9 14.3C156.3 14.1 156.2 14.2 153.1 14.8C159.9 14.9 160.6 18.5 160.7 22.9Z" fill="white"/>
<path d="M159.2 35.2C160.7 30 158 27.7 158 27.7C157.2 26.8 153 26.9 151.5 27.9C151.5 27.9 155.5 27.8 154.9 33.6C154.3 39.4 146.4 40.5 144.2 40.8L144 41.5C147.7 41.6 157.8 40.4 159.2 35.2Z" fill="white"/>
<path d="M117.8 35.1H113.7C115.7 40.6 121.4 42.5 125.2 43L125 42.4C121.2 40.8 119.1 39.2 117.8 35.1Z" fill="white"/>
<path d="M84.7 31.8C85.4 31.8 86 31.2 86 30.5C86 29.8 85.4 29.2 84.7 29.2C84 29.2 83.4 29.8 83.4 30.5C83.4 31.2 84 31.8 84.7 31.8Z" fill="white"/>
<path d="M84.7 39.2C85.6 39.2 86.3 35.8 86.3 34.2C86.3 33.3 85.6 32.7 84.7 32.7C83.8 32.7 83.1 33.3 83.1 34.2C83.1 35.9 83.8 39.2 84.7 39.2Z" fill="white"/>
<path d="M83.8 27H85.5L85.3 24.9L87.4 25.1V23.3L85.3 23.6L85.5 21.4H83.8L84.1 23.6L81.9 23.3V25.1L84.1 24.9L83.8 27Z" fill="white"/>
<path d="M76.7 42H76.9H77.1H77.2H77.3H77.4H77.5H77.6H77.7H77.8C77.9 42 78 42 78.1 42H78.2C80 42.1 81.7 42.5 83.2 42.8C84.7 43.1 86.4 43.5 87.9 43.6C88.1 43.6 88.2 43.6 88.4 43.6C88.5 43.6 88.6 43.6 88.8 43.6C89 43.6 89.2 43.6 89.3 43.6H89.6C89.7 43.6 89.8 43.6 89.9 43.6H90.1H90.2C90.3 43.6 90.3 43.6 90.4 43.6C91 43.5 91.7 43.4 92.2 43.3C92.2 43.2 92.3 43.1 92.3 43C92.9 41.2 93.5 38.5 93.5 37.2C93.5 34.8 92.2 32.2 87.6 31.4C87.6 34.3 86.2 41.3 84.5 41.3H84.3C82.6 41.3 81.2 34.3 81.2 31.4C76.6 32.2 75.3 34.8 75.3 37.2C75.3 38.3 75.8 40.4 76.3 42.1C76.6 42 76.7 42 76.7 42Z" fill="white"/>
<path d="M61 17.7C61 17.7 65 16.5 66.8 21.7C68.4 26.2 65.4 25.6 67.6 26.5C69.8 27.4 68.4 30.6 68.4 30.6H68.5C70.7 30.2 72.1 26.5 70.8 22.3C69.8 19.1 68.4 17.6 67.5 16.8C65.9 15.7 63.8 15.5 61 17.7Z" fill="white"/>
<path d="M52.1 24.2C53.4 27.6 47 32.1 47 32.1C47 32.1 58 29.4 58.2 22.8C58.3 18.4 59 14.8 65.7 14.7C62.7 14 62.5 14 59.9 14.2C59 14.3 54.9 14.6 52.3 17.3C49.8 19.9 53.2 23.1 43 25.2C47.9 26 52.1 24.2 52.1 24.2Z" fill="white"/>
<path d="M64.1 33.6C63.5 27.8 67.5 27.9 67.5 27.9C66 26.9 61.8 26.8 61 27.7C61 27.7 58.3 29.9 59.8 35.2C61.3 40.4 71.3 41.6 75 41.6L74.8 40.9C72.6 40.6 64.6 39.4 64.1 33.6Z" fill="white"/>
<path d="M105.3 35.1H101.2C99.9 39.3 97.8 40.8 93.9 42.4L93.7 43C97.6 42.4 103.3 40.5 105.3 35.1Z" fill="white"/>
<path d="M114.7 59.4C113.5 61.3 112.5 63.2 111.8 65.1C112.5 64.4 113.4 63.6 114.5 62.8C116.3 61.5 117.8 60.9 117.9 60.8L119.5 60.1L119.1 61.8C119.1 61.8 118.5 64.3 118.7 66.6C118.8 67.6 119 68.5 119.3 69.3C119.7 68.4 120.2 67.3 120.9 66.4C122.8 63.8 124.5 62.9 124.6 62.9L125.8 62.3L125.9 63.6C125.9 63.6 126.2 68.2 127.2 70.5C129 74.6 132.3 76.7 134.4 77.7C134.1 77.4 133.8 77.1 133.4 76.7C132.5 75.7 131.4 73.9 130.9 70.1C130.5 66.9 131.7 63.7 132.2 62.7C132.4 63.6 132.8 64.3 133.2 64.5C133.2 64.5 133.1 63.8 133.3 62.9C133.6 60.7 136.1 57.4 139.2 55.3C139.9 54.8 140.4 54.5 140.9 54.2C141.4 53.9 141.8 53.6 142.4 53.3C141.8 53.4 140.9 53.5 140.5 53.6H140.3C139.9 53.6 139.2 53.7 138.5 53.7C137 53.7 135.1 53.5 133.7 52.3C132.3 51.2 131.7 49.9 131.5 49C130.9 49 130.1 49 129 48.9C127.8 48.8 126.8 48.6 126.1 48.4C124.6 49.4 122.9 49.8 120.9 49.9C120.7 49.9 120.3 49.9 120 49.9C120.6 50.4 121.3 50.8 122.1 51.2H122.2L121.7 51.4C121.5 51.6 118.8 53.1 114.7 59.4Z" fill="white"/>
<path d="M140.6 48.3C139.9 48.2 139.2 48.2 138.4 48.2C138.4 48.7 138.4 49.1 138.5 49.5C138.6 50.1 138.9 50.6 139.3 50.9C139.9 50.4 140.4 49.6 140.6 48.3Z" fill="white"/>
<path d="M142.2 43.7C142.1 43.7 142.1 43.7 142.2 43.7H142.1H142H141.9C141.8 43.7 141.6 43.7 141.5 43.7C139.9 43.8 138.3 44.1 136.8 44.5C135.2 44.9 133.5 45.3 131.7 45.3C131.4 45.3 131 45.3 130.7 45.3C130.5 45.3 130.3 45.3 130.1 45.3C130 45.3 129.9 45.3 129.8 45.3C129.7 45.3 129.5 45.3 129.4 45.3C129.4 45.3 129.4 45.3 129.3 45.3C129.3 45.3 129.3 45.3 129.2 45.3H129.1H129C129 45.3 129 45.3 128.9 45.3H128.8C128.8 45.3 128.8 45.3 128.7 45.3C128.7 45.3 128.7 45.3 128.6 45.3C125.1 44.8 122.6 43.7 121.5 43.1C121.8 43.4 122.1 43.9 122.6 44.4C122.8 44.6 123 44.8 123.2 45C123.7 45.4 124.2 45.8 124.8 46.2C125.7 46.6 128.9 48 133.3 47.4C138.3 46.7 139.2 46.8 140.4 46.8H140.8C142.5 46.9 145.1 48.1 146.2 48.7C146.7 47.7 147.1 46.7 147.4 45.6C147.1 45.3 146.8 45 146.1 44.7C145.9 44.6 145.7 44.5 145.4 44.4C144.9 44.2 144.3 44.1 143.6 44C142.9 43.8 142.6 43.7 142.2 43.7Z" fill="white"/>
<path d="M156.1 60.1C156.2 60 156.1 60 156.1 60.1C155.9 60.1 154.2 61.1 150.4 58.6C146.7 56.2 143.8 55.1 142.3 54.9C141.9 55.1 141.6 55.3 141.3 55.5C140.8 55.8 140.3 56 139.7 56.5C139.5 56.6 139.3 56.8 139.1 56.9C139.2 56.9 139.3 57 139.5 57C143 57.3 145.8 59.5 146.1 60.2C146.1 60.3 146.2 60.3 146.2 60.2C146.6 59 146.1 58.1 146.1 58.1C146.1 58.1 147.7 59.1 150.9 61C154.1 62.9 155.6 60.8 156.1 60.1Z" fill="white"/>
<path d="M137.1 50.2C136.8 50 136.6 49.7 136.5 49.3C136.4 49 136.3 48.7 136.2 48.4C135.4 48.5 134.4 48.6 133.1 48.8C132.8 48.8 132.6 48.9 132.3 48.9C132.8 50 133.9 51.3 136 51.8C136.1 51.8 136.3 51.9 136.4 51.9C136.5 51.9 136.7 51.9 136.8 52C137.7 52.1 138.5 52.2 139.3 52.2C140.6 52.2 142.3 52 143.8 51.6C144.1 51.2 144.5 50.7 144.8 50.2C144.7 50.1 144.6 50.1 144.4 50C144.1 49.8 143 49.2 142.5 49C142.3 49.6 142 50.2 141.5 50.5C140.9 50.9 140.2 51.2 139.4 51.2C138.6 51.2 137.9 51 137.3 50.6C137.3 50.4 137.2 50.3 137.1 50.2Z" fill="white"/>
<path d="M147.8 47.4C146.6 50.5 144.7 53 143.3 54.1C152.2 51.7 153.8 56.2 153.8 56.4C153.8 56.6 153.9 56.6 154 56.5C154.2 56.3 157.1 53.1 155 50.1C153.2 47.7 149.1 47.4 147.8 47.4ZM147.8 49.7C148.1 49.3 148.4 48.5 148.4 48.5C149.1 48.5 150.3 48.7 150.3 49.5C149.4 49.4 148.5 49.4 147.8 49.7Z" fill="white"/>
<path d="M80.5 49.5C80.6 49.1 80.6 48.7 80.6 48.2C79.8 48.2 79.1 48.2 78.4 48.3C78.6 49.6 79.1 50.4 79.8 50.9C80.1 50.6 80.4 50.2 80.5 49.5Z" fill="white"/>
<path d="M90.7 45.2C90.6 45.2 90.6 45.2 90.5 45.2C90.5 45.2 90.5 45.2 90.4 45.2H90.3H90.2C90.2 45.2 90.2 45.2 90.1 45.2C90.1 45.2 90.1 45.2 90 45.2C89.9 45.2 89.7 45.2 89.6 45.2C89.5 45.2 89.4 45.2 89.3 45.2C89.1 45.2 88.9 45.2 88.7 45.2C88.4 45.2 88 45.2 87.7 45.2C86 45.1 84.3 44.8 82.6 44.4C81 44 79.5 43.7 77.9 43.6C77.8 43.6 77.6 43.6 77.5 43.6H77.4H77.3C76.9 43.6 76.6 43.6 76.3 43.7C75.6 43.8 75 43.9 74.5 44.1C74.2 44.2 74 44.3 73.8 44.4C73.1 44.8 72.8 45.1 72.5 45.3C72.8 46.4 73.2 47.4 73.7 48.4C74.7 47.8 77.3 46.6 79.1 46.5H79.5C80.7 46.4 81.6 46.3 86.6 47.1C91 47.7 94.2 46.4 95.1 45.9C95.7 45.5 96.2 45.1 96.7 44.7C96.9 44.5 97.1 44.3 97.3 44.1C97.8 43.6 98.2 43.1 98.4 42.8C96.7 43.6 94.3 44.7 90.7 45.2Z" fill="white"/>
<path d="M62.9 60.1C63.4 60.8 64.9 62.9 68.1 61C71.3 59.1 72.9 58.1 72.9 58.1C72.9 58.1 72.4 59.1 72.8 60.2C72.8 60.3 72.9 60.3 72.9 60.2C73.2 59.5 76 57.3 79.5 57C79.7 57 79.8 56.9 79.9 56.9C79.7 56.8 79.5 56.6 79.3 56.5C78.7 56.1 78.2 55.8 77.7 55.5C77.4 55.3 77 55.1 76.7 54.9C75.2 55.2 72.3 56.2 68.6 58.6C64.8 61.1 63 60.1 62.9 60.1C62.8 60 62.9 60 62.9 60.1Z" fill="white"/>
<path d="M76.3 49C75.8 49.2 74.7 49.8 74.4 50C74.3 50.1 74.1 50.1 74 50.2C74.3 50.7 74.7 51.2 75 51.6C76.5 52 78.2 52.2 79.5 52.2C80.3 52.2 81.1 52.1 82 52C82.1 52 82.3 52 82.4 51.9C82.5 51.9 82.7 51.8 82.8 51.8C84.9 51.3 85.9 50.1 86.5 48.9C86.3 48.9 86 48.9 85.7 48.8C84.4 48.6 83.4 48.5 82.6 48.4C82.5 48.7 82.4 49 82.3 49.3C82.1 49.6 81.9 49.9 81.7 50.2C81.6 50.3 81.5 50.4 81.4 50.4C80.8 50.8 80.1 51 79.3 51C78.5 51 77.7 50.8 77.2 50.3C76.9 50.1 76.5 49.5 76.3 49Z" fill="white"/>
<path d="M64 50.1C61.9 53 64.8 56.3 65 56.5C65.1 56.7 65.2 56.6 65.2 56.4C65.2 56.2 66.7 51.7 75.7 54.1C74.3 52.9 72.3 50.5 71.2 47.4C69.9 47.4 65.8 47.7 64 50.1ZM71.2 49.7C70.5 49.4 69.5 49.4 68.7 49.5C68.7 48.7 69.9 48.5 70.6 48.5C70.6 48.5 70.9 49.3 71.2 49.7Z" fill="white"/>
<path d="M99.2 50.1C98.9 50.1 98.5 50.1 98.3 50.1C96.3 50 94.7 49.6 93.1 48.6C92.5 48.8 91.4 49 90.2 49.1C89.2 49.2 88.3 49.2 87.7 49.2C87.4 50 86.8 51.3 85.5 52.5C84.1 53.6 82.2 53.9 80.7 53.9C80 53.9 79.4 53.8 78.9 53.8H78.7C78.3 53.8 77.4 53.6 76.8 53.5C77.3 53.9 77.8 54.2 78.3 54.4C78.8 54.7 79.3 55 80 55.5C83.1 57.7 85.6 60.9 85.9 63.1C86.1 63.9 86 64.7 86 64.7C86.4 64.4 86.8 63.7 87 62.9C87.4 63.9 88.7 67.1 88.3 70.3C87.8 74.1 86.7 75.9 85.8 76.9C85.4 77.3 85.1 77.7 84.8 77.9C86.9 76.9 90.2 74.7 92 70.7C93 68.4 93.3 63.8 93.3 63.8L93.4 62.5L94.6 63.1C94.7 63.1 96.4 64 98.3 66.6C99 67.5 99.5 68.6 99.9 69.5C100.1 68.8 100.4 67.8 100.5 66.8C100.7 64.5 100.1 62 100.1 62L99.7 60.3L101.3 61C101.4 61 102.9 61.7 104.7 63C105.8 63.8 106.7 64.6 107.4 65.3C106.7 63.4 105.7 61.4 104.5 59.6C100.3 53.3 97.7 51.8 97.7 51.8L97 51.4H97.1C97.9 51 98.6 50.6 99.2 50.1Z" fill="white"/>
</svg>
