<svg width="313" height="61" viewBox="0 0 313 61" fill="none" xmlns="http://www.w3.org/2000/svg">
<g clip-path="url(#clip0)">
<path d="M19.9548 3.62012V24.9881H14.657V9.27116H5.38574V25.0764H0.0878906V3.62012H19.9548Z" fill="black"/>
<path d="M46.3557 9.71257C46.9738 11.1253 47.2387 12.6264 47.2387 14.304C47.2387 15.9817 46.9738 17.4828 46.3557 18.8955C45.7376 20.3083 44.943 21.4561 43.9717 22.4274C43.0004 23.3987 41.8525 24.1934 40.5281 24.7232C39.2036 25.2529 37.8792 25.5178 36.4664 25.5178C34.877 25.5178 33.5526 25.2529 32.4047 24.7232C31.2568 24.1934 30.5505 23.487 30.1973 22.6923V33.7295H24.8994V3.62004H30.0207V5.82748C30.3739 5.0328 31.1685 4.32642 32.3164 3.79663C33.4643 3.26685 34.7887 3.00195 36.3781 3.00195C37.7909 3.00195 39.2036 3.26685 40.5281 3.79663C41.8525 4.41471 43.0004 5.20939 43.9717 6.18067C44.943 7.15194 45.8259 8.3881 46.3557 9.71257ZM41.4994 16.5998C41.7642 15.8934 41.9408 15.0987 41.9408 14.304C41.9408 13.5094 41.7642 12.7147 41.4994 12.0083C41.2345 11.3019 40.793 10.6838 40.2632 10.2424C39.7334 9.71257 39.1153 9.35938 38.3206 9.09449C37.526 8.82959 36.7313 8.653 35.8483 8.653C34.5238 8.653 33.376 8.91789 32.3164 9.44768C31.2568 9.97746 30.6388 10.6838 30.2856 11.4785V17.1296C30.6388 17.9242 31.2568 18.6306 32.3164 19.1604C33.376 19.6902 34.5238 19.9551 35.8483 19.9551C36.7313 19.9551 37.6143 19.7785 38.3206 19.5136C39.1153 19.2487 39.7334 18.8072 40.2632 18.3657C40.793 17.9242 41.2345 17.3062 41.4994 16.5998Z" fill="black"/>
<path d="M56.2457 3.62012V16.4233L65.9584 3.62012H71.2563V24.9881H66.0467V12.185L56.334 24.9881H51.0361V3.62012H56.2457Z" fill="black"/>
<path d="M97.4801 14.304C97.4801 15.8933 97.2153 17.3944 96.5972 18.8071C95.9791 20.2199 95.1844 21.3678 94.1248 22.339C93.0653 23.3103 91.9174 24.105 90.5046 24.7231C89.1802 25.2529 87.6791 25.6061 86.1781 25.6061C84.677 25.6061 83.1759 25.3412 81.8515 24.7231C80.527 24.1933 79.2909 23.3986 78.2313 22.339C77.1717 21.2795 76.377 20.1316 75.759 18.8071C75.1409 17.3944 74.876 15.8933 74.876 14.304C74.876 12.7146 75.1409 11.2135 75.759 9.80079C76.377 8.38802 77.1717 7.24016 78.2313 6.18058C79.2909 5.20931 80.4387 4.41463 81.8515 3.79655C83.1759 3.26676 84.677 2.91357 86.1781 2.91357C87.6791 2.91357 89.1802 3.17847 90.5046 3.79655C91.8291 4.32634 93.0653 5.12101 94.1248 6.18058C95.1844 7.15186 95.9791 8.38802 96.5972 9.80079C97.127 11.2135 97.4801 12.7146 97.4801 14.304ZM80.6153 12.0082C80.3504 12.7146 80.1738 13.5093 80.1738 14.304C80.1738 15.0986 80.3504 15.8933 80.6153 16.5997C80.8802 17.3061 81.3217 17.9242 81.8515 18.3657C82.3813 18.8954 82.9993 19.2486 83.794 19.5135C84.5004 19.7784 85.2951 19.955 86.1781 19.955C86.9727 19.955 87.7674 19.7784 88.4738 19.5135C89.1802 19.2486 89.7983 18.8071 90.328 18.3657C90.8578 17.8359 91.2993 17.3061 91.6525 16.5997C92.0057 15.8933 92.094 15.1869 92.094 14.304C92.094 13.5093 91.9174 12.7146 91.6525 12.0082C91.2993 11.3018 90.9461 10.6838 90.328 10.2423C89.7983 9.71249 89.1802 9.3593 88.4738 9.0944C87.7674 8.82951 86.9727 8.65292 86.1781 8.65292C85.3834 8.65292 84.5887 8.82951 83.794 9.0944C83.0876 9.3593 82.3813 9.80079 81.8515 10.2423C81.41 10.6838 80.9685 11.3018 80.6153 12.0082Z" fill="black"/>
<path d="M122.557 9.71257C123.175 11.1253 123.44 12.6264 123.44 14.304C123.44 15.9817 123.175 17.4828 122.557 18.8955C121.939 20.3083 121.144 21.4561 120.173 22.4274C119.202 23.3987 118.054 24.1934 116.729 24.7232C115.405 25.2529 114.08 25.5178 112.668 25.5178C111.078 25.5178 109.754 25.2529 108.606 24.7232C107.458 24.1934 106.752 23.487 106.398 22.6923V33.7295H101.101V3.62004H106.222V5.82748C106.575 5.0328 107.37 4.32642 108.518 3.79663C109.665 3.26685 110.99 3.00195 112.579 3.00195C113.992 3.00195 115.405 3.26685 116.729 3.79663C118.054 4.32642 119.202 5.12109 120.173 6.09237C121.144 7.06364 121.939 8.3881 122.557 9.71257ZM117.701 16.5998C117.965 15.8934 118.142 15.0987 118.142 14.304C118.142 13.5094 117.965 12.7147 117.701 12.0083C117.436 11.3019 116.994 10.6838 116.464 10.2424C115.935 9.71257 115.317 9.35938 114.522 9.09449C113.727 8.82959 112.932 8.653 112.049 8.653C110.725 8.653 109.577 8.91789 108.518 9.44768C107.458 9.97746 106.84 10.6838 106.487 11.4785V17.1296C106.84 17.9242 107.458 18.6306 108.518 19.1604C109.577 19.6902 110.725 19.9551 112.049 19.9551C112.932 19.9551 113.815 19.7785 114.522 19.5136C115.317 19.2487 115.935 18.8072 116.464 18.3657C116.906 17.9242 117.347 17.3062 117.701 16.5998Z" fill="black"/>
<path d="M132.358 3.62012V16.4233L142.071 3.62012H147.369V24.9881H142.159V12.185L132.446 24.9881H127.148V3.62012H132.358Z" fill="black"/>
<path d="M169.266 9.27116H162.644V25.0764H157.346V9.27116H150.724V3.62012H169.178V9.27116H169.266Z" fill="black"/>
<path d="M183.217 20.3084C184.541 20.3084 185.777 20.0435 187.014 19.602C188.25 19.1605 189.133 18.4541 189.751 17.6594L191.34 21.7211C190.634 22.869 189.574 23.752 188.161 24.4583C186.749 25.1647 184.983 25.6062 182.952 25.6062C181.363 25.6062 179.773 25.3413 178.449 24.8115C177.124 24.2817 175.8 23.5754 174.829 22.6041C173.769 21.6328 172.974 20.485 172.444 19.0722C171.826 17.6594 171.562 16.1584 171.562 14.3924C171.562 12.8914 171.826 11.3903 172.356 10.0658C172.886 8.74138 173.592 7.50521 174.564 6.44564C175.535 5.38607 176.683 4.59139 178.007 3.97331C179.332 3.35522 180.833 3.09033 182.51 3.09033C184.1 3.09033 185.513 3.44352 186.837 4.06161C188.161 4.67969 189.221 5.47437 190.104 6.53394C190.987 7.59351 191.693 8.74138 192.223 10.1541C192.753 11.4786 192.93 12.8914 192.93 14.3924C192.93 14.6573 192.93 15.0105 192.93 15.3637C192.93 15.7169 192.841 15.9818 192.841 16.2467H176.948C177.213 17.6594 177.919 18.719 178.979 19.3371C180.215 19.9552 181.627 20.3084 183.217 20.3084ZM187.632 11.9201C187.455 10.7722 186.925 9.88925 185.954 9.35946C184.983 8.74138 183.923 8.47648 182.599 8.47648C181.274 8.47648 180.126 8.74138 179.155 9.35946C178.096 9.97754 177.477 10.8605 177.301 11.9201H187.632Z" fill="black"/>
<path d="M213.856 9.27116H207.234V25.0764H201.936V9.27116H195.313V3.62012H213.768V9.27116H213.856Z" fill="black"/>
<path d="M224.099 8.035C223.569 8.035 223.128 8.12329 222.686 8.29989C222.245 8.47648 221.892 8.65308 221.45 8.91797C221.097 9.18286 220.744 9.44776 220.479 9.80095C220.214 10.1541 219.949 10.5073 219.684 10.8605L217.83 7.59351C218.007 6.97543 218.272 6.35734 218.625 5.82756C218.978 5.29777 219.508 4.76799 220.038 4.4148C220.567 3.97331 221.274 3.70842 221.98 3.44352C222.686 3.17863 223.481 3.09033 224.364 3.09033C225.512 3.09033 226.483 3.26693 227.278 3.62012C228.161 3.97331 228.867 4.4148 229.397 5.03288C230.015 5.65096 230.457 6.35734 230.722 7.15202C231.163 7.9467 231.34 8.74138 231.34 9.71265C231.34 10.5073 231.251 11.2137 231.075 11.8318C230.898 12.4499 230.633 13.068 230.28 13.686C229.927 14.3041 229.485 14.9222 228.956 15.5403C228.426 16.1584 227.808 16.8648 227.19 17.6594L225.07 20.0435H231.781V24.8998H218.007V21.1913L224.099 14.569C224.541 14.1275 224.894 13.686 225.247 13.3329C225.6 12.9797 225.865 12.6265 226.042 12.2733C226.218 11.9201 226.395 11.6552 226.483 11.302C226.572 11.0371 226.66 10.6839 226.66 10.2424C226.66 9.62435 226.395 9.09457 225.953 8.65308C225.512 8.21159 224.894 8.035 224.099 8.035Z" fill="#F32735"/>
<path d="M240.875 3.97339C242.199 3.4436 243.7 3.17871 245.202 3.17871C246.703 3.17871 248.204 3.4436 249.528 3.97339C250.853 4.50317 252.089 5.29785 253.148 6.26913C254.208 7.2404 255.003 8.47657 255.621 9.80103C256.239 11.2138 256.504 12.7148 256.504 14.3042C256.504 15.9819 256.239 17.4829 255.621 18.8074C255.003 20.2201 254.208 21.368 253.148 22.3393C252.089 23.3106 250.941 24.1052 249.528 24.635C248.115 25.1648 246.703 25.4297 245.202 25.4297C243.7 25.4297 242.199 25.1648 240.875 24.635C239.462 24.1052 238.314 23.3106 237.255 22.3393C236.195 21.368 235.4 20.1318 234.782 18.8074C234.164 17.4829 233.899 15.8936 233.899 14.3042C233.899 12.6266 234.164 11.1255 234.782 9.80103C235.4 8.38827 236.195 7.2404 237.255 6.26913C238.314 5.20956 239.55 4.50317 240.875 3.97339ZM245.202 20.5733C246.084 20.5733 246.967 20.3967 247.762 20.1318C248.557 19.7787 249.263 19.4255 249.881 18.8074C250.499 18.2776 250.941 17.5712 251.294 16.8648C251.647 16.0702 251.824 15.2755 251.824 14.3042C251.824 13.4212 251.647 12.5383 251.294 11.7436C250.941 10.9489 250.499 10.3308 249.881 9.71273C249.263 9.18295 248.557 8.74146 247.762 8.38827C246.967 8.03508 246.084 7.94678 245.202 7.94678C244.23 7.94678 243.436 8.12338 242.553 8.38827C241.758 8.74146 241.052 9.09465 240.433 9.71273C239.815 10.2425 239.374 10.9489 239.021 11.7436C238.667 12.5383 238.491 13.3329 238.491 14.3042C238.491 15.2755 238.667 16.0702 239.021 16.8648C239.374 17.6595 239.815 18.2776 240.433 18.8074C241.052 19.3372 241.758 19.7787 242.553 20.1318C243.436 20.485 244.23 20.5733 245.202 20.5733Z" fill="#F32735"/>
<path d="M264.009 20.6615C264.981 20.6615 265.775 20.3967 266.305 19.9552C266.923 19.5137 267.188 18.8956 267.188 18.1009C267.188 17.3945 266.923 16.8648 266.393 16.4233C265.864 15.9818 265.157 15.8052 264.274 15.8052C263.656 15.8052 263.126 15.8935 262.685 15.9818C262.243 16.1584 261.89 16.2467 261.714 16.4233L261.007 13.068L264.716 8.47648H258.8V3.62012H270.808V7.15202L267.188 11.6552C267.718 11.7435 268.248 12.0084 268.777 12.2733C269.307 12.5382 269.837 12.9797 270.367 13.5094C270.897 14.0392 271.25 14.6573 271.515 15.452C271.78 16.2467 271.956 17.1296 271.956 18.2775C271.956 19.3371 271.78 20.2201 271.426 21.103C271.073 21.986 270.543 22.7807 269.837 23.4871C269.131 24.1935 268.336 24.7232 267.365 25.0764C266.393 25.4296 265.334 25.6945 264.098 25.6945C263.215 25.6945 262.42 25.6062 261.714 25.4296C261.007 25.253 260.389 24.9881 259.859 24.6349C259.33 24.2817 258.888 23.9286 258.535 23.5754C258.182 23.1339 257.917 22.7807 257.74 22.3392L258.8 18.3658C259.418 19.0722 260.124 19.602 260.919 20.1318C261.537 20.3967 262.685 20.6615 264.009 20.6615Z" fill="#F32735"/>
<path d="M280.874 3.97339C282.198 3.4436 283.699 3.17871 285.201 3.17871C286.702 3.17871 288.203 3.4436 289.527 3.97339C290.852 4.50317 292.088 5.29785 293.147 6.26913C294.207 7.2404 295.002 8.47657 295.62 9.80103C296.238 11.2138 296.503 12.7148 296.503 14.3042C296.503 15.9819 296.238 17.4829 295.62 18.8074C295.002 20.2201 294.207 21.368 293.147 22.3393C292.088 23.3106 290.94 24.1052 289.527 24.635C288.114 25.1648 286.702 25.4297 285.201 25.4297C283.699 25.4297 282.198 25.1648 280.874 24.635C279.461 24.1052 278.313 23.3106 277.254 22.3393C276.194 21.368 275.399 20.1318 274.781 18.8074C274.163 17.4829 273.898 15.8936 273.898 14.3042C273.898 12.6266 274.163 11.1255 274.781 9.80103C275.399 8.38827 276.194 7.2404 277.254 6.26913C278.313 5.20956 279.549 4.50317 280.874 3.97339ZM285.201 20.5733C286.083 20.5733 286.966 20.3967 287.761 20.1318C288.556 19.7787 289.262 19.4255 289.88 18.8074C290.498 18.2776 290.94 17.5712 291.293 16.8648C291.646 16.0702 291.823 15.2755 291.823 14.3042C291.823 13.4212 291.646 12.5383 291.293 11.7436C290.94 10.9489 290.498 10.3308 289.88 9.71273C289.262 9.18295 288.556 8.74146 287.761 8.38827C286.966 8.03508 286.083 7.94678 285.201 7.94678C284.229 7.94678 283.435 8.12338 282.552 8.38827C281.757 8.74146 281.051 9.09465 280.432 9.71273C279.814 10.2425 279.373 10.9489 279.02 11.7436C278.666 12.5383 278.49 13.3329 278.49 14.3042C278.49 15.2755 278.666 16.0702 279.02 16.8648C279.373 17.6595 279.814 18.2776 280.432 18.8074C281.051 19.3372 281.757 19.7787 282.552 20.1318C283.435 20.485 284.318 20.5733 285.201 20.5733Z" fill="#F32735"/>
<path d="M307.893 0H303.567L298.622 8.56486H302.949L307.893 0Z" fill="#F32735"/>
<path d="M303.567 0H307.894L312.75 8.56486H308.512L303.567 0Z" fill="#F32735"/>
<path d="M14.0393 54.3919C13.5978 55.2748 12.8031 55.9812 11.7436 56.511C10.684 57.0408 9.44784 57.394 7.94678 57.394C6.88721 57.394 5.82764 57.2174 4.85637 56.7759C3.88509 56.3344 3.00212 55.8046 2.29574 55.0982C1.58936 54.3919 0.971273 53.5089 0.529785 52.4493C0.176595 51.3897 0 50.3302 0 49.094C0 47.8578 0.176595 46.71 0.618083 45.7387C1.05957 44.7674 1.58936 43.8844 2.38403 43.1781C3.09042 42.4717 3.97339 41.9419 4.94466 41.5004C5.91594 41.0589 6.88721 40.8823 8.03508 40.8823C8.74146 40.8823 9.44784 40.9706 10.0659 41.1472C10.684 41.3238 11.3021 41.5004 11.7436 41.7653C12.1851 42.0302 12.7149 42.3834 13.068 42.6483C13.4212 43.0015 13.7744 43.3547 13.951 43.7078L13.1563 45.9153C12.8914 45.5621 12.6266 45.2972 12.2734 44.944C11.9202 44.5908 11.567 44.4142 11.1255 44.1493C10.684 43.8844 10.2425 43.7961 9.71273 43.6196C9.18295 43.5313 8.65316 43.443 8.12338 43.443C7.3287 43.443 6.53402 43.5313 5.82764 43.7961C5.12126 44.061 4.59147 44.4142 4.06169 44.8557C3.5319 45.2972 3.17871 45.9153 2.91382 46.6217C2.64893 47.328 2.47233 48.1227 2.47233 48.9174C2.47233 49.8004 2.64893 50.5068 2.91382 51.2131C3.17871 51.9195 3.5319 52.4493 4.06169 52.9791C4.59147 53.4206 5.12126 53.8621 5.82764 54.127C6.53402 54.3919 7.2404 54.4802 8.12338 54.4802C9.35954 54.4802 10.4191 54.2153 11.2138 53.7738C12.0968 53.244 12.7149 52.7142 13.2446 52.0078L14.0393 54.3919Z" fill="#F32735"/>
<path d="M24.7236 48.3873H21.1917V57.1287H18.8077V48.3873H15.1875V45.8267H24.7236V48.3873Z" fill="#F32735"/>
<path d="M32.0515 54.8332C32.7579 54.8332 33.4643 54.6566 34.0824 54.3917C34.7004 54.1268 35.2302 53.7736 35.4951 53.3321L36.2015 55.1864C36.0249 55.4513 35.8483 55.7162 35.5834 55.981C35.3185 56.2459 34.9653 56.4225 34.6121 56.6874C34.259 56.864 33.8175 57.0406 33.376 57.1289C32.9345 57.2172 32.4047 57.3055 31.8749 57.3055C30.9919 57.3055 30.2856 57.1289 29.4909 56.864C28.7845 56.5991 28.1664 56.1576 27.6366 55.7161C27.1069 55.1864 26.6654 54.5683 26.4005 53.8619C26.1356 53.1555 25.959 52.2725 25.959 51.3896C25.959 50.5949 26.0473 49.8002 26.3122 49.0938C26.5771 48.3875 26.9303 47.7694 27.46 47.2396C27.9898 46.7098 28.5196 46.2683 29.226 45.9151C29.9324 45.5619 30.7271 45.4736 31.61 45.4736C32.4047 45.4736 33.1994 45.6502 33.8175 45.9151C34.5238 46.2683 35.0536 46.6215 35.4951 47.2396C35.9366 47.7694 36.2898 48.3875 36.5547 49.0938C36.8196 49.8002 36.9079 50.5949 36.9079 51.3896C36.9079 51.7428 36.9079 52.0077 36.8196 52.2725H28.343C28.4313 53.1555 28.8728 53.7736 29.4909 54.2151C30.2856 54.6566 31.0802 54.8332 32.0515 54.8332ZM34.5238 50.1534C34.4355 49.5353 34.1707 49.0055 33.6409 48.6523C33.1111 48.2992 32.493 48.0343 31.6983 48.0343C31.3451 48.0343 30.9919 48.1226 30.6388 48.2109C30.2856 48.2992 30.0207 48.4757 29.7558 48.6523C29.4909 48.8289 29.226 49.0938 29.0494 49.3587C28.8728 49.6236 28.7845 49.8885 28.6962 50.2417H34.5238V50.1534Z" fill="#F32735"/>
<path d="M49.7114 45.7383V57.0404H47.3274V48.2989H42.0295V57.0404H39.6455V45.7383H49.7114Z" fill="#F32735"/>
<path d="M58.1882 54.8332C58.8946 54.8332 59.601 54.6566 60.2191 54.3917C60.8372 54.1268 61.367 53.7736 61.6318 53.3321L62.3382 55.1864C62.1616 55.4513 61.985 55.7162 61.7201 55.981C61.4552 56.2459 61.1021 56.4225 60.7489 56.6874C60.3957 56.864 59.9542 57.0406 59.5127 57.1289C59.0712 57.2172 58.5414 57.3055 58.0116 57.3055C57.1287 57.3055 56.4223 57.1289 55.6276 56.864C54.9212 56.5991 54.3031 56.1576 53.7734 55.7161C53.2436 55.1864 52.8021 54.5683 52.5372 53.8619C52.2723 53.1555 52.0957 52.2725 52.0957 51.3896C52.0957 50.5949 52.184 49.8002 52.4489 49.0938C52.7138 48.3875 53.067 47.7694 53.5968 47.2396C54.1265 46.7098 54.6563 46.2683 55.3627 45.9151C56.0691 45.5619 56.8638 45.4736 57.7467 45.4736C58.5414 45.4736 59.3361 45.6502 59.9542 45.9151C60.6606 46.2683 61.1904 46.6215 61.6318 47.2396C62.0733 47.7694 62.4265 48.3875 62.6914 49.0938C62.9563 49.8002 63.0446 50.5949 63.0446 51.3896C63.0446 51.7428 63.0446 52.0077 62.9563 52.2725H54.4797C54.568 53.1555 55.0095 53.7736 55.6276 54.2151C56.334 54.6566 57.217 54.8332 58.1882 54.8332ZM60.6606 50.1534C60.5723 49.5353 60.3074 49.0055 59.7776 48.6523C59.2478 48.2992 58.6297 48.0343 57.835 48.0343C57.4819 48.0343 57.1287 48.1226 56.7755 48.2109C56.4223 48.2992 56.1574 48.4757 55.8925 48.6523C55.6276 48.8289 55.3627 49.0938 55.1861 49.3587C55.0095 49.6236 54.9212 49.8885 54.8329 50.2417H60.6606V50.1534Z" fill="#F32735"/>
<path d="M67.9885 45.7383V49.8883H73.3747V45.7383H75.7587V57.0404H73.3747V52.5372H67.9885V57.0404H65.6045V45.7383H67.9885Z" fill="#F32735"/>
<path d="M79.0264 57.0404V45.7383H81.4104V49.0053H83.3529C83.971 49.0053 84.5008 49.0936 85.0306 49.2702C85.5604 49.4468 86.0019 49.7117 86.3551 50.0649C86.7082 50.4181 87.0614 50.8595 87.238 51.301C87.4146 51.7425 87.5912 52.3606 87.5912 52.9787C87.5912 53.5968 87.5029 54.1266 87.238 54.6563C86.9731 55.1861 86.7082 55.5393 86.3551 55.8925C86.0019 56.2457 85.4721 56.5106 85.0306 56.6872C84.5008 56.8638 83.971 56.9521 83.3529 56.9521H79.0264V57.0404ZM83.6178 54.568C84.1476 54.568 84.5008 54.3914 84.854 54.1265C85.1189 53.8617 85.2955 53.5085 85.2955 53.067C85.2955 52.6255 85.1189 52.184 84.854 52.0074C84.5008 51.7425 84.1476 51.6542 83.7061 51.6542H81.4987V54.6563H83.6178V54.568Z" fill="#F32735"/>
<path d="M104.986 48.3873H101.366V57.1287H98.9815V48.3873H95.3613V45.8267H104.986V48.3873Z" fill="#F32735"/>
<path d="M111.255 45.7383C111.785 45.7383 112.314 45.8266 112.844 45.9149C113.286 46.0915 113.727 46.2681 114.08 46.533C114.433 46.7979 114.698 47.151 114.875 47.5042C115.052 47.8574 115.14 48.3872 115.14 48.8287C115.14 49.2702 115.052 49.7117 114.963 50.0649C114.787 50.4181 114.61 50.6829 114.257 51.0361C114.698 51.301 115.14 51.6542 115.316 52.0957C115.581 52.5372 115.67 53.067 115.67 53.6851C115.67 54.2148 115.581 54.6563 115.316 55.0978C115.14 55.5393 114.787 55.8925 114.433 56.1574C114.08 56.4223 113.639 56.6872 113.197 56.8638C112.756 57.0404 112.226 57.1287 111.608 57.1287H106.84V45.7383H111.255ZM111.608 50.3298C111.961 50.3298 112.226 50.2415 112.491 50.0649C112.756 49.8883 112.844 49.6234 112.844 49.3585C112.844 49.0053 112.756 48.7404 112.491 48.5638C112.226 48.3872 111.961 48.2989 111.608 48.2989H109.312V50.3298H111.608ZM112.138 54.6563C112.491 54.6563 112.756 54.568 113.021 54.3914C113.286 54.2148 113.374 53.95 113.374 53.5968C113.374 53.2436 113.286 53.067 113.021 52.8021C112.756 52.6255 112.491 52.5372 112.138 52.5372H109.312V54.7446H112.138V54.6563Z" fill="#F32735"/>
<path d="M128.65 49.0934C129.003 49.7998 129.091 50.5945 129.091 51.4775C129.091 52.3604 128.914 53.0668 128.65 53.8615C128.385 54.6562 127.943 55.186 127.413 55.7157C126.884 56.2455 126.265 56.687 125.559 56.9519C124.853 57.2168 124.146 57.3934 123.352 57.3934C122.557 57.3934 121.851 57.2168 121.144 56.9519C120.438 56.687 119.82 56.2455 119.29 55.7157C118.76 55.186 118.319 54.5679 118.054 53.8615C117.789 53.1551 117.612 52.3604 117.612 51.4775C117.612 50.5945 117.789 49.8881 118.054 49.0934C118.319 48.2987 118.76 47.769 119.29 47.2392C119.82 46.7094 120.438 46.2679 121.144 46.003C121.851 45.7381 122.557 45.5615 123.352 45.5615C124.146 45.5615 124.853 45.7381 125.559 46.003C126.265 46.2679 126.884 46.7094 127.413 47.2392C127.943 47.6807 128.385 48.387 128.65 49.0934ZM119.908 51.3892C119.908 51.919 119.996 52.3604 120.173 52.7136C120.35 53.1551 120.614 53.5083 120.879 53.7732C121.144 54.0381 121.586 54.303 121.939 54.4796C122.38 54.6562 122.822 54.7445 123.263 54.7445C123.705 54.7445 124.146 54.6562 124.588 54.4796C125.029 54.303 125.383 54.1264 125.647 53.7732C125.912 53.5083 126.177 53.1551 126.354 52.7136C126.53 52.2721 126.619 51.8307 126.619 51.3892C126.619 50.8594 126.53 50.4179 126.354 49.9764C126.177 49.5349 125.912 49.1817 125.647 48.9168C125.383 48.6519 124.941 48.387 124.588 48.2105C124.146 48.0339 123.705 47.9456 123.263 47.9456C122.822 47.9456 122.38 48.0339 121.939 48.2105C121.497 48.387 121.144 48.5636 120.879 48.9168C120.614 49.27 120.35 49.5349 120.173 49.9764C119.996 50.5062 119.908 50.9477 119.908 51.3892Z" fill="#F32735"/>
<path d="M133.948 45.7383V53.067L139.422 45.7383H141.806V57.0404H139.51V49.7117L134.036 57.0404H131.563V45.7383H133.948Z" fill="#F32735"/>
<path d="M146.662 57.0404H143.66L147.987 51.0361L144.102 45.7383H147.015L149.4 49.0936L151.784 45.7383H154.786L150.989 51.0361L155.315 57.0404H152.402L149.576 53.067L146.662 57.0404Z" fill="#F32735"/>
<path d="M163.174 54.4797C163.704 53.6851 164.234 52.6255 164.587 51.3893C164.94 50.1532 165.205 48.5638 165.205 46.7096V45.7383H173.064V54.4797H174.741V60.0425H172.445V57.0404H164.322V60.0425H162.026V54.4797H163.174ZM170.68 54.4797V48.3872H167.501C167.413 49.8 167.148 51.0361 166.794 52.0957C166.441 53.1553 166.088 53.95 165.823 54.4797H170.68Z" fill="#F32735"/>
<path d="M187.368 49.0934C187.721 49.7998 187.809 50.5945 187.809 51.4775C187.809 52.3604 187.633 53.0668 187.368 53.8615C187.103 54.6562 186.661 55.186 186.132 55.7157C185.602 56.2455 184.984 56.687 184.277 56.9519C183.571 57.2168 182.776 57.3934 181.982 57.3934C181.187 57.3934 180.48 57.2168 179.774 56.9519C179.068 56.687 178.45 56.2455 177.92 55.7157C177.39 55.186 176.949 54.5679 176.684 53.8615C176.419 53.1551 176.242 52.3604 176.242 51.4775C176.242 50.5945 176.419 49.8881 176.684 49.0934C176.949 48.2987 177.39 47.769 177.92 47.2392C178.45 46.7094 179.068 46.2679 179.774 46.003C180.48 45.7381 181.187 45.5615 181.982 45.5615C182.776 45.5615 183.483 45.7381 184.189 46.003C184.895 46.2679 185.513 46.7094 186.043 47.2392C186.661 47.6807 187.103 48.387 187.368 49.0934ZM178.626 51.3892C178.626 51.919 178.715 52.3604 178.891 52.7136C179.068 53.1551 179.333 53.5083 179.597 53.7732C179.862 54.0381 180.304 54.303 180.657 54.4796C181.099 54.6562 181.54 54.7445 181.982 54.7445C182.423 54.7445 182.865 54.6562 183.306 54.4796C183.747 54.303 184.101 54.1264 184.366 53.7732C184.63 53.5083 184.895 53.1551 185.072 52.7136C185.249 52.2721 185.337 51.8307 185.337 51.3892C185.337 50.8594 185.249 50.4179 185.072 49.9764C184.895 49.5349 184.63 49.1817 184.366 48.9168C184.101 48.6519 183.659 48.387 183.306 48.2105C182.865 48.0339 182.423 47.9456 181.982 47.9456C181.54 47.9456 181.099 48.0339 180.657 48.2105C180.216 48.387 179.862 48.5636 179.597 48.9168C179.333 49.27 179.068 49.5349 178.891 49.9764C178.715 50.5062 178.626 50.9477 178.626 51.3892Z" fill="#F32735"/>
<path d="M199.729 55.3626C199.553 55.6274 199.376 55.8923 199.111 56.1572C198.846 56.4221 198.493 56.5987 198.14 56.7753C197.787 56.9519 197.345 57.1285 196.904 57.2168C196.462 57.3051 195.933 57.3934 195.403 57.3934C194.608 57.3934 193.902 57.2168 193.195 56.9519C192.489 56.687 191.871 56.2455 191.341 55.7157C190.811 55.186 190.37 54.5679 190.017 53.8615C189.663 53.1551 189.575 52.3604 189.575 51.4775C189.575 50.5945 189.752 49.7998 190.017 49.0934C190.282 48.387 190.723 47.769 191.341 47.2392C191.871 46.7094 192.489 46.3562 193.195 46.003C193.902 45.6498 194.608 45.5615 195.403 45.5615C196.374 45.5615 197.257 45.7381 198.052 46.1796C198.758 46.5328 199.288 47.0626 199.553 47.5041L198.846 49.5349C198.582 49.1817 198.14 48.8285 197.522 48.5636C196.992 48.2987 196.374 48.1222 195.668 48.1222C194.52 48.1222 193.637 48.387 192.931 49.0051C192.224 49.6232 191.871 50.4179 191.871 51.3892C191.871 52.3604 192.224 53.2434 192.931 53.8615C193.637 54.4796 194.52 54.7445 195.668 54.7445C196.374 54.7445 196.992 54.5679 197.522 54.303C198.052 54.0381 198.493 53.6849 198.846 53.3317L199.729 55.3626Z" fill="#F32735"/>
<path d="M210.943 48.3873H207.323V57.1287H204.851V48.3873H201.23V45.8267H210.855V48.3873H210.943Z" fill="#F32735"/>
<path d="M215.358 45.7383V53.067L220.832 45.7383H223.216V57.0404H220.832V49.7117L215.358 57.0404H212.974V45.7383H215.358Z" fill="#F32735"/>
<path d="M234.871 50.3298L238.845 45.8267H241.847L236.99 51.2128L242.288 57.0404H239.11L234.871 52.1841V57.0404H232.487V52.1841L228.249 57.0404H225.07L230.368 51.2128L225.6 45.8267H228.602L232.576 50.3298V45.8267H234.96V50.3298H234.871Z" fill="#F32735"/>
<path d="M248.558 54.8328C249.264 54.8328 249.971 54.6562 250.589 54.3913C251.207 54.1264 251.737 53.7732 252.002 53.3317L252.708 55.186C252.531 55.4509 252.355 55.7157 252.09 55.9806C251.825 56.2455 251.472 56.4221 251.119 56.687C250.765 56.8636 250.324 57.0402 249.882 57.1285C249.441 57.2168 248.999 57.3934 248.47 57.3934C247.587 57.3934 246.88 57.2168 246.086 56.9519C245.379 56.687 244.761 56.2455 244.231 55.804C243.702 55.2743 243.26 54.6562 242.995 53.9498C242.73 53.2434 242.554 52.3604 242.554 51.4775C242.554 50.6828 242.642 49.8881 242.907 49.1817C243.172 48.4753 243.525 47.8573 244.055 47.3275C244.585 46.7977 245.114 46.3562 245.821 46.003C246.527 45.6498 247.322 45.5615 248.205 45.5615C248.999 45.5615 249.794 45.7381 250.412 46.003C251.119 46.3562 251.648 46.7094 252.09 47.3275C252.531 47.9456 252.885 48.4753 253.149 49.1817C253.414 49.8881 253.503 50.6828 253.503 51.4775C253.503 51.8307 253.503 52.0955 253.414 52.3604H244.938C245.026 53.2434 245.468 53.8615 246.086 54.303C246.792 54.6562 247.587 54.8328 248.558 54.8328ZM251.03 50.153C250.942 49.5349 250.677 49.0051 250.147 48.6519C249.618 48.2987 248.999 48.0339 248.205 48.0339C247.852 48.0339 247.498 48.1222 247.145 48.2105C246.792 48.2987 246.527 48.4753 246.262 48.6519C245.997 48.8285 245.732 49.0934 245.556 49.3583C245.379 49.6232 245.291 49.8881 245.203 50.2413H251.03V50.153Z" fill="#F32735"/>
<path d="M258.447 45.7383V49.8883H263.833V45.7383H266.217V57.0404H263.833V52.5372H258.447V57.0404H256.062V45.7383H258.447Z" fill="#F32735"/>
<path d="M271.868 45.7383V53.067L277.343 45.7383H279.727V57.0404H277.343V49.7117L271.868 57.0404H269.484V45.7383H271.868Z" fill="#F32735"/>
<path d="M285.289 45.7382V53.0669L290.764 45.7382H293.148V57.0403H290.764V49.7116L285.289 57.0403H282.905V45.7382H285.289ZM291.735 41.235C291.735 41.7648 291.647 42.2063 291.47 42.5595C291.294 43.001 291.029 43.3542 290.675 43.6191C290.322 43.884 289.969 44.1488 289.528 44.3254C289.086 44.502 288.556 44.5903 288.115 44.5903C287.585 44.5903 287.144 44.502 286.702 44.3254C286.261 44.1488 285.819 43.9723 285.554 43.6191C285.201 43.3542 284.936 43.001 284.76 42.5595C284.583 42.118 284.495 41.6765 284.495 41.235L286.525 40.8818C286.525 41.3233 286.702 41.5882 286.967 41.9414C287.232 42.2063 287.673 42.3829 288.115 42.3829C288.645 42.3829 288.998 42.2063 289.351 41.9414C289.616 41.6765 289.793 41.3233 289.793 40.8818L291.735 41.235Z" fill="#F32735"/>
</g>
<defs>
<clipPath id="clip0">
<rect width="312.75" height="60.0423" fill="white"/>
</clipPath>
</defs>
</svg>
