<svg aria-hidden="true" style="position: absolute; width: 0; height: 0; overflow: hidden;" version="1.1" xmlns="http://www.w3.org/2000/svg" xmlns:xlink="http://www.w3.org/1999/xlink">
<defs>
<symbol id="icon-logo-minobr" viewBox="0 0 33 32">
<path fill="#fff" style="fill: var(--color1, #fff)" d="M26.488 23.858c-0.101 0-0.168 0.084-0.168 0.184s0.084 0.184 0.168 0.184c0.101 0 0.168-0.084 0.168-0.184s-0.067-0.184-0.168-0.184z"></path>
<path fill="#fff" style="fill: var(--color1, #fff)" d="M27.058 25.499c0 0.101 0.084 0.184 0.168 0.184 0.101 0 0.168-0.084 0.168-0.184s-0.084-0.184-0.168-0.184c-0.101 0-0.168 0.084-0.168 0.184z"></path>
<path fill="#fff" style="fill: var(--color1, #fff)" d="M26.488 25.315c-0.101 0-0.168 0.084-0.168 0.184s0.084 0.184 0.168 0.184c0.101 0 0.168-0.084 0.168-0.184s-0.067-0.184-0.168-0.184z"></path>
<path fill="#fff" style="fill: var(--color1, #fff)" d="M27.778 25.499c0 0.101 0.084 0.184 0.168 0.184 0.101 0 0.168-0.084 0.168-0.184s-0.084-0.184-0.168-0.184c-0.084 0-0.168 0.084-0.168 0.184z"></path>
<path fill="#fff" style="fill: var(--color1, #fff)" d="M26.253 22.232l0.034 0.419-0.352-0.050v0.469l0.352-0.034-0.034 0.436h0.469l-0.034-0.436 0.352 0.034v-0.469l-0.352 0.050 0.034-0.419h-0.469z"></path>
<path fill="#fff" style="fill: var(--color1, #fff)" d="M26.79 23.724v1.491h1.441c-0.117-0.771-0.704-1.374-1.441-1.491z"></path>
<path fill="#fff" style="fill: var(--color1, #fff)" d="M26.488 24.578c-0.101 0-0.168 0.084-0.168 0.184s0.084 0.184 0.168 0.184c0.101 0 0.168-0.084 0.168-0.184s-0.067-0.184-0.168-0.184z"></path>
<path fill="#fff" style="fill: var(--color1, #fff)" d="M27.091 26.488c-0.050 0-0.168 0.369-0.050 0.637 0.067 0.134 0.201 0.201 0.318 0.168s0.151-0.151 0.151-0.235c0.034-0.285-0.235-0.57-0.419-0.57z"></path>
<path fill="#fff" style="fill: var(--color1, #fff)" d="M25.885 26.488c-0.184 0-0.436 0.268-0.436 0.57 0 0.084 0.034 0.201 0.151 0.235s0.268-0.017 0.318-0.168c0.117-0.251 0.017-0.637-0.034-0.637z"></path>
<path fill="#fff" style="fill: var(--color1, #fff)" d="M26.488 26.287c-0.151 0-0.519 0.754-0.235 1.139 0.050 0.067 0.151 0.117 0.235 0.117 0.101 0 0.184-0.034 0.235-0.117 0.285-0.369-0.084-1.139-0.235-1.139z"></path>
<path fill="#fff" style="fill: var(--color1, #fff)" d="M24.712 25.499c0-0.151 0.034-0.285 0.034-0.285h1.441v-1.474c-0.704 0.117-1.257 0.67-1.424 1.357-0.034 0.050-0.168 0.084-0.268 0.084-0.536-0.067-1.608-0.268-1.608-0.486 0-0.318 0.218-0.452 0.436-0.452 0.302 0 0.637 0.168 0.905-0.235-0.988 0.050-0.235-1.374-1.039-1.642 0.034 0.369 0 1.005-0.134 1.34 0 0-0.285-0.302-0.62-0.419 0.017 0.268-0.017 0.804-0.151 1.055 0 0-0.335-0.318-0.704-0.436 0.335 0.469 0.318 1.156 0.235 1.575-0.034 0.117 0.067 0.268 0.318 0.251 0.385-0.017 1.726 0.034 2.312 0.285 0.184 0.067 0.335 0.151 0.419 0.285 0.067 0.168 0.218 0.436 0.402 0.586 0.084-0.302 0.436-0.62 0.67-0.603 0.067 0 0.151 0.117 0.168 0.235 0.017-0.101 0.201-0.402 0.385-0.402 0.168 0 0.335 0.251 0.402 0.452 0.017-0.134 0.101-0.268 0.168-0.268 0.235 0 0.536 0.201 0.637 0.553 0.084-0.117 0.503-0.637 0.553-0.988h-3.502c0-0.067-0.034-0.218-0.034-0.369z"></path>
<path fill="#fff" style="fill: var(--color1, #fff)" d="M25.6 25.499c0 0.101 0.084 0.184 0.168 0.184s0.168-0.084 0.168-0.184c0-0.101-0.084-0.184-0.168-0.184-0.101 0-0.168 0.084-0.168 0.184z"></path>
<path fill="#fff" style="fill: var(--color1, #fff)" d="M24.88 25.499c0 0.101 0.084 0.184 0.168 0.184 0.101 0 0.168-0.084 0.168-0.184s-0.084-0.184-0.168-0.184c-0.084 0-0.168 0.084-0.168 0.184z"></path>
<path fill="#fff" style="fill: var(--color1, #fff)" d="M11.091 26.22c-0.050 0.050-0.201 0.436-0.134 0.67 0.034 0.101 0.084 0.134 0.168 0.134 0.101 0 0.151-0.050 0.168-0.151 0.034-0.235-0.134-0.603-0.201-0.653z"></path>
<path fill="#fff" style="fill: var(--color1, #fff)" d="M12.331 27.259c-0.084 0.084-0.168 0.151-0.201 0.184 0.034 0.034 0.117 0.084 0.235 0.084 0.067 0 0.117-0.017 0.184-0.050 0.117-0.184 0-0.385-0.050-0.436-0.034 0.050-0.084 0.134-0.168 0.218z"></path>
<path fill="#fff" style="fill: var(--color1, #fff)" d="M11.879 26.806c0.117-0.134 0.168-0.218 0.134-0.302-0.050-0.101-0.318-0.419-0.67-0.754-0.017 0.067-0.034 0.134-0.050 0.218 0.235 0.318 0.335 0.67 0.251 0.955 0.034 0.017 0.050 0.034 0.050 0.034 0.084 0.017 0.201-0.084 0.285-0.151z"></path>
<path fill="#fff" style="fill: var(--color1, #fff)" d="M12.331 26.823c0.017-0.050 0-0.101-0.017-0.134-0.017-0.017-0.017-0.017-0.017-0.017-0.017 0-0.067 0.050-0.117 0.117-0.034 0.050-0.084 0.101-0.134 0.168s-0.117 0.117-0.151 0.151c-0.050 0.050-0.101 0.101-0.101 0.117 0 0 0 0.017 0.017 0.017 0.017 0.017 0.050 0.034 0.084 0.034 0.050 0 0.151-0.017 0.302-0.184 0.084-0.117 0.117-0.218 0.134-0.268z"></path>
<path fill="#fff" style="fill: var(--color1, #fff)" d="M10.136 25.064c0 0-0.050 0.050-0.067 0.101 0.067 0 0.168 0.017 0.235 0.034 0-0.067-0.017-0.168 0-0.251-0.084 0.017-0.151 0.084-0.168 0.117z"></path>
<path fill="#fff" style="fill: var(--color1, #fff)" d="M11.024 25.164c0 0 0.687 0.62 0.921 0.838 0.050 0.050 0.134 0.067 0.201 0.017 0.050-0.017 0.101-0.050 0.151-0.067 0.687-0.251 1.826-0.268 2.245-0.251 0.251 0.017 0.335-0.134 0.318-0.251-0.084-0.385-0.101-1.089 0.235-1.575-0.352 0.117-0.704 0.436-0.704 0.436-0.117-0.251-0.168-0.787-0.151-1.055-0.318 0.117-0.62 0.419-0.62 0.419-0.134-0.335-0.168-0.972-0.134-1.34-0.804 0.268-0.050 1.692-1.039 1.642 0.268 0.402 0.603 0.235 0.905 0.235 0.218 0 0.469 0.134 0.436 0.452-0.034 0.235-1.34 0.519-1.876 0.519-0.369 0-0.62-0.117-0.804-0.369-0.084-0.117-0.184-0.184-0.285-0.168-0.134 0.017-0.268 0.151-0.268 0.452 0 0.218 0.084 0.687 0.335 0.687 0.201-0.017 0.201-0.385 0.134-0.62z"></path>
<path fill="#fff" style="fill: var(--color1, #fff)" d="M9.701 24.947c0.034 0.017 0.067 0 0.084-0.017-0.101 0.134-0.101 0.218-0.050 0.268 0.067 0.067 0.117-0.050 0.285-0.235s0.285-0.235 0.218-0.302c-0.050-0.050-0.134-0.050-0.268 0.067 0.017-0.034 0.017-0.067 0.017-0.101-0.050-0.168-0.318-0.369-0.452-0.369-0.017 0-0.034 0-0.067 0.017 0.067-0.101 0.050-0.184 0-0.218-0.050-0.050-0.067-0.017-0.117 0.050 0-0.050 0-0.101-0.050-0.168-0.218-0.318-1.34-1.391-1.592-1.491-0.151-0.067-0.201 0.017-0.201 0.017s-0.084 0.050-0.017 0.218c0.117 0.251 1.19 1.374 1.508 1.575 0.067 0.050 0.117 0.050 0.168 0.050-0.067 0.050-0.084 0.084-0.050 0.134 0.034 0.034 0.117 0.050 0.218-0.017 0 0.017-0.017 0.034-0.017 0.067 0.017 0.134 0.235 0.402 0.385 0.452z"></path>
<path fill="#fff" style="fill: var(--color1, #fff)" d="M10.505 25.734c0-0.117-0.218-0.302-0.469-0.302-0.369 0-0.536 0.235-0.536 0.352 0 0.235 0.218 0.251 0.285 0.268 0.268 0.017 0.687-0.251 0.72-0.318z"></path>
<path fill="#fff" style="fill: var(--color1, #fff)" d="M10.186 26.304c-0.101 0.134-0.134 0.251-0.117 0.369 0.034 0.151 0.168 0.201 0.302 0.201s0.251-0.067 0.318-0.168c0.151-0.218 0.151-0.72 0.101-0.787-0.134 0.017-0.436 0.168-0.603 0.385z"></path>
<path fill="#fff" style="fill: var(--color1, #fff)" d="M6.903 21.11c-0.101-0.101-0.318 0.050-0.452-0.017 0.050-0.318 0.285 0.017 0.503-0.218 0.084-0.101 0.034-0.235-0.017-0.285-0.101 0.101-0.235 0.067-0.251 0.017 0.251-0.586-0.235-1.24-0.704-1.156 0.084 0.117 0.117 0.553 0.084 0.67 0.184 0.134 0.050 0.436-0.151 0.335-0.134-0.050-0.369-0.385-0.101-0.62 0-0.084-0.151-0.101-0.302 0.101 0.117-0.369-0.586-0.251-0.72-0.168-0.084 0.151-0.168 0.871 0.184 0.737-0.184 0.168-0.168 0.318-0.084 0.318 0.218-0.285 0.536-0.050 0.603 0.084 0.084 0.201-0.201 0.335-0.335 0.168-0.117 0.050-0.519 0.034-0.653-0.067-0.067 0.486 0.586 0.955 1.156 0.687 0.050 0.017 0.084 0.151 0 0.251 0.050 0.050 0.184 0.101 0.268 0 0.218-0.235-0.117-0.452 0.201-0.519 0.067 0.134-0.067 0.352 0.034 0.469 0.168 0.168 0.385-0.151 0.586-0.168 0.017-0.235 0.318-0.452 0.151-0.62zM5.16 20.356c0 0-0.117-0.084 0.017-0.218s0.218-0.034 0.218-0.034c0 0 0.117 0.268 0.168 0.402-0.134-0.034-0.402-0.151-0.402-0.151zM6.232 21.194c-0.067 0.017-0.235 0.151-0.302 0.067l-0.369-0.369 0.369-0.402 0.369 0.369c0.084 0.101-0.050 0.268-0.067 0.335z"></path>
<path fill="#fff" style="fill: var(--color1, #fff)" d="M7.003 21.797c-0.034 0-0.084 0-0.117 0.050-0.034 0.034-0.050 0.101-0.034 0.168s0.050 0.151 0.117 0.201c0.067 0.067 0.168 0.117 0.251 0.117 0.034 0 0.084 0 0.117-0.050 0.084-0.084 0.034-0.251-0.084-0.369-0.084-0.067-0.168-0.117-0.251-0.117z"></path>
<path fill="#fff" style="fill: var(--color1, #fff)" d="M5.948 20.691l-0.201 0.201c0 0 0.201 0.268 0.369 0.168 0.101-0.168-0.168-0.369-0.168-0.369z"></path>
<path fill="#fff" style="fill: var(--color1, #fff)" d="M25.382 19.686c0 0.050-0.285 0.201-0.469-0.184-0.201-0.034-0.402-0.101-0.536-0.151 0.235 0.469 0.436 0.854 0.771 1.072 0.486 0.318 1.257 0.251 1.508-0.101-0.419-0.235-0.938-0.821-1.206-1.407-0.050 0.134-0.151 0.369-0.235 0.519 0.034 0.084 0.101 0.184 0.168 0.251z"></path>
<path fill="#fff" style="fill: var(--color1, #fff)" d="M30.040 12.398c0.553-0.235 1.307-0.754 1.659-1.123 0.050 0.067 0.168 0.369-0.235 0.704-0.285 0.251-0.888 0.519-1.34 0.704-0.201 0.302-0.586 0.637-1.139 1.005 1.055-0.168 2.346-0.586 2.965-1.206 1.19-1.156 0.553-2.58 0.402-2.882-0.771 0.955-2.228 1.96-3.602 2.513 0.469 0.067 0.955 0.168 1.29 0.285z"></path>
<path fill="#fff" style="fill: var(--color1, #fff)" d="M29.169 10.253c0.687-0.57 1.441-1.709 1.558-2.111 0.151 0.117 0.235 0.436 0.017 0.821-0.369 0.653-1.022 1.206-1.592 1.659-0.017 0.419-0.201 0.905-0.385 1.257 0.838-0.553 1.793-1.407 2.228-1.96 0.57-0.737 0.804-1.474 0.687-2.195 0.034-0.821-0.553-1.659-0.804-1.86-0.151 0.905-1.072 2.446-1.876 3.317 0.101 0.285 0.151 0.704 0.168 1.072z"></path>
<path fill="#fff" style="fill: var(--color1, #fff)" d="M28.632 15.548c0.168 0.184 0.335 0.419 0.452 0.62 0.637 0.134 1.407 0.101 1.407 0.101s-0.050 0.335-0.486 0.352c-0.184 0.017-0.787-0.084-1.039-0.168-0.101 0.050-0.57 0.151-1.039 0.218 0.67 0.235 1.625 0.486 2.245 0.486 0.067 0 0.117 0 0.168 0 0.972-0.084 1.474-0.988 1.491-1.508-0.285 0.050-0.787 0.101-1.307 0.101-0.419 0-1.257-0.034-1.893-0.201z"></path>
<path fill="#fff" style="fill: var(--color1, #fff)" d="M32.67 13.001c-0.871 0.452-2.413 0.938-3.619 0.921 0.302 0.184 0.603 0.402 0.787 0.586 0.503-0.034 1.206-0.184 1.608-0.352 0 0.067 0.017 0.385-0.452 0.536-0.318 0.101-0.821 0.101-1.173 0.117-0.285 0.184-0.737 0.369-1.106 0.503 0.335 0.050 0.754 0.084 1.139 0.084 0.653 0 1.223-0.067 1.592-0.184 0.318-0.117 1.407-0.603 1.223-2.212z"></path>
<path fill="#fff" style="fill: var(--color1, #fff)" d="M27.979 17.592c0.369 0.168 0.754 0.285 1.089 0.318 0 0-0.050 0.318-0.57 0.251-0.285-0.034-0.637-0.251-0.704-0.302-0.218 0.034-0.704 0.017-0.888-0.017 0.57 0.402 1.441 0.871 2.178 0.938 0.034 0 0.067 0 0.117 0 0.771 0 1.374-0.771 1.525-1.139-0.787-0.017-2.094-0.318-2.898-0.771 0.050 0.184 0.117 0.436 0.151 0.72z"></path>
<path fill="#fff" style="fill: var(--color1, #fff)" d="M26.655 18.614c0.201 0.218 0.536 0.369 0.536 0.369s-0.084 0.168-0.285 0.168c-0.067 0-0.134-0.017-0.201-0.067-0.134-0.084-0.318-0.285-0.318-0.285-0.251-0.034-0.486-0.067-0.72-0.151 0.402 0.503 1.072 1.122 1.793 1.29 0.101 0.034 0.218 0.034 0.318 0.034 0.653 0 1.156-0.469 1.307-0.771-0.737-0.101-1.793-0.653-2.346-1.206-0.017 0.235-0.034 0.452-0.084 0.62z"></path>
<path fill="#fff" style="fill: var(--color1, #fff)" d="M21.881 26.806c0.352 0 0.603-0.151 0.754-0.503-0.486 0.235-1.039 0.101-2.010-0.201 0 0-0.385 0.168-0.586 0.184 0.586 0.184 1.458 0.452 1.592 0.787 0.050 0.285-0.101 0.318-0.101 0.318-0.352-0.402-0.737-0.637-1.592-0.888 0 0.151-0.034 0.268-0.034 0.268s-0.184 0.050-0.57-0.017c0.335 0.285 1.139 0.955 1.24 1.709 0.067 0.503-0.285 0.519-0.285 0.519-0.050-0.754-0.369-1.223-1.089-2.010 0 0-0.117 0.184-0.268 0.268 0 0-0.268-0.050-0.486-0.184 0.084 0.988 0.134 3.384 0.084 3.77-0.034 0.268-0.201 0.385-0.201 0.385s-0.151-0.117-0.201-0.385c-0.050-0.385 0-2.781 0.084-3.77-0.218 0.151-0.486 0.184-0.486 0.184-0.151-0.101-0.268-0.268-0.268-0.268-0.704 0.787-1.039 1.257-1.089 2.010 0 0-0.352-0.017-0.285-0.519 0.101-0.754 0.905-1.424 1.24-1.709-0.385 0.067-0.57 0.017-0.57 0.017s-0.034-0.101-0.034-0.268c-0.854 0.251-1.24 0.503-1.592 0.888 0 0-0.168-0.050-0.101-0.318 0.151-0.335 1.005-0.603 1.592-0.787-0.201-0.017-0.586-0.184-0.586-0.184-0.972 0.302-1.541 0.436-2.010 0.201 0.151 0.352 0.402 0.503 0.754 0.503-0.452 0.168-0.921 0.62-1.039 1.089 0.335 1.223 1.391 1.592 1.391 1.592-0.268-0.586-0.151-1.759 1.441-2.563-0.988 0.972-1.357 1.86-1.106 2.697 0.235 0.771 1.022 1.072 1.608 1.089-0.419-1.273-0.235-2.429 0.637-3.334-0.369 1.005-0.888 4.088 0.603 4.607 1.491-0.519 0.972-3.602 0.603-4.607 0.854 0.921 1.039 2.061 0.637 3.334 0.586-0.017 1.357-0.318 1.608-1.089 0.268-0.838-0.117-1.726-1.106-2.697 1.592 0.804 1.709 1.977 1.441 2.563 0 0 1.055-0.369 1.391-1.592-0.084-0.469-0.553-0.921-1.005-1.089z"></path>
<path fill="#fff" style="fill: var(--color1, #fff)" d="M11.56 20.423c0.318-0.218 0.536-0.603 0.771-1.072-0.134 0.050-0.335 0.117-0.536 0.151-0.201 0.369-0.469 0.235-0.469 0.184 0.067-0.067 0.134-0.168 0.184-0.251-0.084-0.151-0.184-0.385-0.235-0.519-0.285 0.586-0.787 1.173-1.206 1.407 0.218 0.335 1.005 0.402 1.491 0.101z"></path>
<path fill="#fff" style="fill: var(--color1, #fff)" d="M7.69 13.705c-0.553-0.369-0.938-0.704-1.139-1.005-0.452-0.184-1.056-0.452-1.34-0.704-0.402-0.335-0.268-0.637-0.235-0.704 0.352 0.369 1.122 0.888 1.659 1.123 0.335-0.134 0.821-0.235 1.273-0.285-1.357-0.536-2.831-1.558-3.602-2.513-0.151 0.302-0.787 1.726 0.402 2.882 0.637 0.603 1.927 1.039 2.982 1.206z"></path>
<path fill="#fff" style="fill: var(--color1, #fff)" d="M7.925 11.862c-0.184-0.352-0.369-0.838-0.385-1.257-0.57-0.452-1.206-1.005-1.592-1.659-0.218-0.369-0.134-0.704 0.017-0.821 0.117 0.402 0.871 1.541 1.558 2.111 0-0.369 0.067-0.787 0.168-1.106-0.804-0.871-1.726-2.396-1.876-3.317-0.251 0.201-0.838 1.039-0.804 1.86-0.101 0.72 0.134 1.458 0.687 2.195 0.436 0.603 1.391 1.441 2.228 1.994z"></path>
<path fill="#fff" style="fill: var(--color1, #fff)" d="M7.606 16.168c0.117-0.201 0.285-0.436 0.452-0.62-0.637 0.184-1.474 0.218-1.91 0.218-0.519 0-1.022-0.034-1.307-0.101 0.034 0.519 0.519 1.424 1.491 1.508 0.050 0 0.101 0 0.168 0 0.603 0 1.575-0.251 2.245-0.486-0.469-0.067-0.938-0.168-1.039-0.218-0.251 0.067-0.838 0.168-1.039 0.168-0.436-0.017-0.486-0.352-0.486-0.352s0.804 0.017 1.424-0.117z"></path>
<path fill="#fff" style="fill: var(--color1, #fff)" d="M5.261 15.213c0.369 0.117 0.938 0.184 1.592 0.184 0.385 0 0.804-0.034 1.139-0.084-0.369-0.117-0.821-0.318-1.106-0.503-0.369 0-0.854-0.017-1.173-0.117-0.469-0.151-0.469-0.469-0.452-0.536 0.402 0.168 1.089 0.318 1.608 0.352 0.184-0.184 0.486-0.402 0.787-0.586-1.206 0.017-2.748-0.469-3.619-0.921-0.201 1.608 0.888 2.094 1.223 2.212z"></path>
<path fill="#fff" style="fill: var(--color1, #fff)" d="M7.489 18.798c0.034 0 0.067 0 0.117 0 0.737-0.067 1.608-0.536 2.178-0.938-0.184 0.034-0.653 0.050-0.888 0.017-0.084 0.050-0.419 0.268-0.704 0.302-0.519 0.067-0.57-0.251-0.57-0.251 0.335-0.034 0.72-0.151 1.089-0.318 0.034-0.285 0.101-0.519 0.151-0.704-0.804 0.452-2.111 0.771-2.898 0.771 0.168 0.352 0.771 1.122 1.525 1.122z"></path>
<path fill="#fff" style="fill: var(--color1, #fff)" d="M8.913 19.987c0.101 0 0.218-0.017 0.318-0.034 0.704-0.168 1.391-0.787 1.793-1.29-0.235 0.067-0.469 0.117-0.72 0.151 0 0-0.184 0.218-0.318 0.285-0.067 0.034-0.134 0.067-0.201 0.067-0.201 0-0.285-0.168-0.285-0.168s0.318-0.151 0.536-0.369c-0.034-0.168-0.067-0.385-0.067-0.62-0.553 0.57-1.608 1.106-2.346 1.206 0.134 0.302 0.653 0.771 1.29 0.771z"></path>
<path fill="#fff" style="fill: var(--color1, #fff)" d="M18.078 1.759c0 0.151 0.117 0.285 0.268 0.285s0.268-0.134 0.268-0.285c0-0.151-0.117-0.285-0.268-0.285s-0.268 0.134-0.268 0.285z"></path>
<path fill="#fff" style="fill: var(--color1, #fff)" d="M18.161 1.156h0.369l-0.034-0.436 0.402 0.033v-0.352l-0.402 0.050 0.034-0.452h-0.369l0.034 0.452-0.402-0.050v0.352l0.402-0.033-0.034 0.436z"></path>
<path fill="#fff" style="fill: var(--color1, #fff)" d="M16.871 5.579c0.034 0.017 0.084 0.017 0.134 0.017h2.664c0.050 0 0.101 0 0.134-0.017 0.084-0.034 0.134-0.101 0.151-0.201h-3.233c0.017 0.101 0.067 0.168 0.151 0.201z"></path>
<path fill="#fff" style="fill: var(--color1, #fff)" d="M19.803 5.177c0.034 0 0.050-0.017 0.050-0.050v-0.201c0-0.034-0.017-0.050-0.050-0.050h-2.915c-0.034 0-0.050 0.017-0.050 0.050v0.201c0 0.034 0.017 0.050 0.050 0.050h2.915z"></path>
<path fill="#fff" style="fill: var(--color1, #fff)" d="M20.105 4.674c0.067-0.101 0.452-0.821 0.452-1.541 0-0.653-0.821-1.022-1.307-1.039-0.050 0.938-0.419 2.413-0.905 2.413-0.452 0-0.838-1.458-0.905-2.413-0.486 0.017-1.307 0.385-1.307 1.039 0 0.737 0.369 1.458 0.452 1.541h3.518z"></path>
<path fill="#fff" style="fill: var(--color1, #fff)" d="M18.346 4.038c0.218 0 0.519-0.72 0.586-1.391 0-0.134-0.218-0.352-0.586-0.352s-0.586 0.218-0.586 0.352c0.067 0.62 0.369 1.391 0.586 1.391z"></path>
<path fill="#fff" style="fill: var(--color1, #fff)" d="M22.568 14.978c0-0.084-0.067-0.168-0.168-0.168h-8.092c-0.084 0-0.168 0.067-0.168 0.168v5.596c0 0-0.017 0.285 0.151 0.637 0.184 0.402 0.854 1.072 1.742 1.525 1.24 0.637 1.977 1.139 2.329 1.424 0.369-0.285 1.089-0.804 2.329-1.424 0.888-0.452 1.558-1.122 1.742-1.525 0.168-0.352 0.134-0.653 0.134-0.653v-5.579zM19.837 17.005l0.017 0.050c0.117 0.402 0.184 0.821 0.235 1.24 0.335 0.268 0.637 0.536 0.888 0.821 0.503-0.57 0.754-1.106 0.771-1.525h-0.017c-0.235 0-0.419-0.184-0.419-0.419 0-0.084 0.034-0.151 0.067-0.218-0.218-0.117-0.503-0.151-0.72-0.151-0.201 0-0.402 0.017-0.637 0.067-0.017 0-0.017 0-0.034 0.017l-0.067 0.017 0.017-0.050c0.017-0.050 0.050-0.117 0.050-0.151v-0.017h0.017c0.67-0.117 1.19-0.067 1.525 0.134 0.067-0.034 0.134-0.067 0.218-0.067 0.235 0 0.419 0.184 0.419 0.419 0 0.168-0.101 0.302-0.218 0.369 0.017 0.469-0.285 1.089-0.838 1.726 0.034 0.034 0.050 0.067 0.084 0.101 0.017 0.017 0.034 0.050 0.050 0.067l0.017 0.017-0.017 0.017c-0.034 0.034-0.050 0.067-0.084 0.101l-0.017 0.017-0.017-0.017h-0.017c-0.017-0.017-0.034-0.050-0.050-0.067-0.017-0.034-0.050-0.050-0.067-0.084-0.067 0.067-0.134 0.134-0.201 0.201l-0.050 0.050c-0.101 0.067-0.201 0.084-0.285 0.050l-0.034-0.017 0.034-0.017c0.168-0.151 0.302-0.285 0.419-0.419-0.218-0.235-0.469-0.469-0.737-0.687 0.017 0.235 0.034 0.469 0.034 0.687 0 0.201-0.017 0.419-0.034 0.687v0.017h-0.017c-0.034 0.017-0.084 0.050-0.151 0.084l-0.034 0.017v-0.050c0.017-0.268 0.034-0.519 0.034-0.754 0-0.084 0-0.168 0-0.235v-0.050c0-0.151-0.034-0.637-0.084-0.938h-0.017v-0.017c-0.034-0.268-0.101-0.536-0.151-0.787v-0.017l0.034-0.034c0.034-0.034 0.067-0.067 0.084-0.101v-0.084zM17.089 16.369c0.335-0.787 0.787-1.223 1.273-1.223s0.938 0.436 1.273 1.223l0.017 0.017-0.017 0.017c-0.017 0.017-0.067 0.034-0.134 0.067l-0.017 0.017-0.017-0.017c-0.302-0.704-0.704-1.106-1.106-1.106s-0.804 0.402-1.106 1.106l-0.017 0.017-0.017-0.017c-0.067-0.034-0.117-0.050-0.134-0.067l-0.017-0.017 0.017-0.017zM16.972 16.586c0.117 0.067 0.419 0.218 0.737 0.117 0.285-0.084 0.653-0.084 0.653-0.084s0.369 0 0.653 0.084c0.318 0.101 0.62-0.050 0.737-0.117 0.017-0.017 0.050 0 0.034 0.034-0.034 0.134-0.151 0.486-0.637 0.603-0.469 0.117-0.687 0.653-0.754 0.871 0 0.034-0.050 0.034-0.050 0-0.067-0.218-0.285-0.754-0.754-0.871-0.503-0.117-0.62-0.452-0.637-0.603-0.034-0.034 0-0.050 0.017-0.034zM17.776 17.927c0.084 0 0.168-0.034 0.235-0.067 0.050 0.084 0.084 0.168 0.101 0.218-0.101 0.050-0.201 0.101-0.318 0.101-0.352 0-0.653-0.285-0.653-0.653 0-0.084 0.017-0.168 0.050-0.235 0.067 0.034 0.134 0.067 0.218 0.101-0.017 0.050-0.034 0.101-0.034 0.151 0 0.201 0.184 0.385 0.402 0.385zM17.592 17.525c0-0.034 0-0.050 0.017-0.067 0.101 0.050 0.201 0.117 0.268 0.218-0.034 0.017-0.067 0.034-0.101 0.034-0.101 0-0.184-0.084-0.184-0.184zM17.776 18.379c0.151 0 0.302-0.050 0.436-0.117 0.034 0.034 0.084 0.168 0.151 0.168 0.050 0 0.101-0.134 0.151-0.168 0.134 0.084 0.285 0.117 0.436 0.117 0.235 0 0.436-0.101 0.603-0.251 0 0 0 0.017 0.017 0.017 0.084 0.251 0.084 0.603 0.067 0.737s-0.050 0.285-0.084 0.402c-0.050 0.168-0.101 0.285-0.101 0.285s-0.017 0.034-0.034 0.101c-0.050 0.117-0.134 0.352-0.251 0.603-0.251-0.151-0.553-0.235-0.854-0.235-0.285 0-0.553 0.067-0.787 0.201-0.101-0.218-0.184-0.436-0.235-0.553-0.034-0.067-0.050-0.117-0.050-0.117s-0.067-0.151-0.117-0.335c-0.034-0.117-0.067-0.235-0.067-0.352-0.017-0.101-0.017-0.452 0.067-0.72 0.017-0.034 0.034-0.084 0.050-0.117 0.101 0.218 0.335 0.335 0.603 0.335zM18.932 17.927c0.218 0 0.402-0.184 0.402-0.402 0-0.050-0.017-0.101-0.034-0.151 0.084-0.034 0.151-0.067 0.218-0.101 0.034 0.084 0.050 0.151 0.050 0.235 0 0.352-0.285 0.653-0.653 0.653-0.117 0-0.235-0.034-0.335-0.101 0.017-0.067 0.050-0.134 0.101-0.218 0.084 0.067 0.168 0.084 0.251 0.084zM18.831 17.659c0.067-0.084 0.168-0.168 0.268-0.218 0.017 0.017 0.017 0.050 0.017 0.067 0 0.101-0.084 0.184-0.184 0.184-0.050 0.017-0.084 0-0.101-0.034zM14.961 16.72c0.084 0 0.151 0.034 0.218 0.067 0.218-0.134 0.503-0.218 0.871-0.218 0.201 0 0.402 0.017 0.637 0.050h0.034v0.017c0.017 0.034 0.034 0.101 0.050 0.151l0.017 0.050-0.067-0.017c-0.017 0-0.050-0.017-0.067-0.017-0.218-0.034-0.419-0.050-0.603-0.050-0.235 0-0.519 0.034-0.737 0.151 0.034 0.067 0.067 0.134 0.067 0.218 0 0.235-0.184 0.419-0.419 0.419 0.017 0.402 0.285 0.938 0.771 1.525 0.251-0.285 0.553-0.553 0.888-0.821 0.050-0.419 0.117-0.821 0.235-1.24l0.017-0.050 0.034 0.034c0.034 0.034 0.050 0.067 0.084 0.101 0.017 0.017 0.017 0.017 0.017 0.017l0.017 0.017v0.017c-0.067 0.251-0.117 0.519-0.151 0.787v0.017h-0.017c-0.034 0.201-0.050 0.469-0.067 0.737-0.017 0.184-0.017 0.352-0.017 0.503 0 0.201 0.017 0.402 0.034 0.653v0.034l-0.034-0.017c-0.050-0.017-0.101-0.034-0.134-0.034h-0.017v-0.017c-0.017-0.184-0.034-0.402-0.034-0.62 0-0.235 0.017-0.469 0.034-0.687-0.268 0.218-0.519 0.452-0.737 0.687 0.184 0.201 0.402 0.402 0.653 0.62l0.034 0.034-0.050 0.017c-0.084 0.017-0.168 0.017-0.251-0.017-0.218-0.184-0.385-0.352-0.519-0.503-0.034 0.034-0.050 0.067-0.084 0.101l-0.017 0.034c-0.034 0.017-0.084 0.034-0.117 0.050l-0.017 0.017-0.017-0.017c-0.017-0.017-0.017-0.017-0.034-0.034-0.017 0-0.017-0.017-0.034-0.017l-0.017-0.017 0.017-0.017c0.067-0.084 0.134-0.168 0.201-0.235-0.553-0.637-0.838-1.24-0.838-1.709-0.134-0.067-0.235-0.218-0.235-0.385-0.034-0.184 0.151-0.385 0.402-0.385zM19.703 21.897c-0.251 0.67-0.586 1.122-0.938 1.324-0.034 0.201-0.201 0.352-0.419 0.352s-0.385-0.151-0.419-0.352c-0.369-0.201-0.687-0.653-0.938-1.307l-0.017-0.017 0.184-0.050v0.017c0.218 0.57 0.486 0.955 0.771 1.156 0.067-0.168 0.218-0.285 0.402-0.285s0.335 0.117 0.402 0.285c0.285-0.201 0.553-0.586 0.771-1.139v-0.017h0.017c0.050 0 0.101 0.017 0.134 0.017h0.034l0.017 0.017zM17.977 21.864c0-0.134 0.050-0.486 0.101-0.62 0.067-0.050 0.168-0.084 0.268-0.084 0.117 0 0.218 0.034 0.302 0.101 0.050 0.134 0.084 0.469 0.084 0.603s-0.318 0.235-0.369 0.251c-0.067-0.017-0.385-0.101-0.385-0.251zM22.266 20.524c-0.017 0.034-0.050 0.050-0.084 0.067s-0.084 0.017-0.134 0.034h-0.034c-0.067 0-0.134-0.017-0.184-0.034-0.017-0.017-0.034-0.017-0.050-0.034-0.117 0.017-0.335 0.084-0.402 0.117 0.034 0 0.318 0.034 0.536 0.184 0.101 0.050 0.285 0.101 0.352 0.101 0 0.034-0.335 0.268-0.955 0.134l-0.168-0.034c-0.285-0.084-0.57-0.117-0.854-0.084 0.034 0.017 0.067 0.017 0.084 0.034 0.084 0.034 0.151 0.067 0.218 0.101 0.017 0 0.017 0.017 0.017 0.017 0.017 0 0.034 0 0.050 0 0.034 0 0.050 0.017 0.084 0.017 0.034 0.017 0.067 0.034 0.101 0.050 0.050 0.034 0.084 0.067 0.117 0.101 0.017 0.017 0.034 0.050 0.034 0.067 0.017 0.050 0 0.101-0.034 0.151-0.117 0.134-0.235 0.134-0.369 0 0 0-0.017-0.017-0.017-0.034-0.017-0.017-0.067-0.067-0.084-0.134 0-0.017-0.017-0.034-0.017-0.050h-0.017c-0.050-0.050-0.101-0.084-0.168-0.101-0.117-0.050-0.235-0.084-0.335-0.101-0.034 0-0.050 0-0.084-0.017 0.101 0.067 0.184 0.134 0.235 0.218l0.017 0.017c0.067 0.101 0.050 0.201 0.101 0.285 0.101 0.218 0.134 0.218 0.218 0.302-0.084 0.034-0.586 0.017-0.838-0.318-0.017-0.017-0.017-0.034-0.034-0.050-0.050-0.117-0.101-0.268-0.134-0.352-0.034-0.101 0.017-0.184-0.034-0.218-0.067-0.034-0.101 0.017-0.101 0.017s0 0-0.017 0.017l-0.017 0.017c-0.017 0.017-0.034 0.034-0.034 0.050l-0.017 0.017c-0.017 0.017-0.017 0.034-0.017 0.034l-0.017 0.017c0 0.017-0.017 0.017-0.017 0.017l-0.017 0.017c-0.017 0.017-0.034 0.017-0.050 0l-0.017 0.017c0 0-0.017 0.017-0.034 0.017-0.034 0.017-0.067 0.017-0.101 0.017s-0.067-0.017-0.067-0.050c0-0.017 0-0.034 0.017-0.050h-0.017c-0.017 0-0.034 0.017-0.067 0.017s-0.050-0.017-0.067-0.034c-0.017-0.017-0.017-0.050 0-0.067s0-0.017 0-0.017c-0.017 0.017-0.050 0.034-0.067 0.050s-0.050 0-0.067-0.017c-0.017-0.017-0.034-0.034-0.034-0.067v-0.067c0 0 0 0 0-0.017h-0.034c0 0 0 0-0.017 0-0.050-0.017-0.101-0.017-0.134-0.034h-0.017c0 0 0 0-0.017 0-0.034 0.017-0.084 0.034-0.134 0.050 0 0 0 0-0.017 0h-0.017c-0.017 0-0.017 0-0.034 0.017 0 0 0-0.017-0.017-0.017 0 0 0-0.017-0.017-0.017 0.017-0.017 0.017-0.034 0.017-0.034v-0.017c0 0 0 0-0.017 0s-0.050 0-0.067 0c0 0.017 0 0.034-0.017 0.050l-0.017 0.017c0 0.017 0 0.034 0 0.034v0.034c0 0.017 0 0.050-0.017 0.067s-0.050 0.017-0.067 0.017c-0.017 0-0.017-0.017-0.034-0.017s-0.017-0.017-0.034-0.017c0 0 0 0-0.017-0.017 0 0 0 0-0.017-0.017 0 0 0-0.017-0.017-0.017v0.017c0 0 0 0 0 0.017l0.017 0.017c0 0 0.017 0.017 0.017 0.034 0.017 0.017 0 0.050 0 0.067-0.017 0.034-0.050 0.034-0.084 0.034 0 0-0.017 0-0.034 0s-0.017-0.017-0.034-0.017c0.017 0.017 0.017 0.034 0.017 0.067s-0.034 0.050-0.067 0.050c-0.017 0-0.050 0-0.067 0 0 0-0.017 0-0.017-0.017 0 0-0.017-0.017-0.034-0.017-0.017-0.017-0.017-0.017-0.034-0.017-0.017 0.017-0.034 0.017-0.050 0l-0.017-0.017c-0.017-0.017-0.034-0.034-0.034-0.050v-0.017c0 0 0 0 0-0.017v-0.017l-0.034-0.034c-0.084-0.067-0.168 0.168-0.168 0.168-0.318 0.637-1.039 0.754-1.039 0.72 0-0.017 0.168-0.084 0.218-0.318 0.034-0.134 0.034-0.168 0.101-0.285 0.017-0.017 0.017-0.034 0.034-0.050 0.050-0.067 0.117-0.117 0.201-0.168-0.034 0-0.050 0-0.084 0.017-0.101 0.017-0.218 0.050-0.335 0.101-0.050 0.017-0.117 0.067-0.168 0.101 0 0-0.017 0-0.017 0.017s0 0.034-0.017 0.050-0.034 0.084-0.067 0.117c0 0.017-0.017 0.017-0.034 0.034l-0.017 0.017c-0.117 0.134-0.251 0.134-0.369 0.017-0.017-0.017-0.017-0.034-0.017-0.050-0.017-0.050-0.017-0.084-0.017-0.134 0.017-0.034 0.034-0.067 0.050-0.101s0.050-0.050 0.084-0.067c0.034-0.017 0.067-0.034 0.101-0.050 0.017 0 0.050-0.017 0.084-0.017 0.017 0 0.034 0 0.050 0 0-0.017 0.017-0.017 0.017-0.017 0.033-0.017 0.067-0.034 0.101-0.050s0.067-0.034 0.101-0.050c0.017 0 0.034-0.017 0.050-0.017-0.268-0.017-0.553 0.017-0.821 0.101-0.050 0.017-0.101 0.034-0.168 0.034-0.335 0.084-0.955-0.101-0.955-0.134s0.151-0.034 0.352-0.134c0.117-0.067 0.218-0.134 0.318-0.151 0.084-0.017 0.251-0.034 0.302-0.034-0.067-0.034-0.369-0.084-0.469-0.101-0.017 0.017-0.034 0.017-0.050 0.034-0.067 0.034-0.134 0.034-0.201 0.034-0.050 0-0.101-0.017-0.134-0.034s-0.067-0.034-0.101-0.067c-0.017-0.034-0.050-0.084-0.034-0.168 0.034-0.151 0.168-0.201 0.318-0.151 0.084 0.034 0.151 0.067 0.201 0.117 0.017 0.017 0.017 0.017 0.034 0.034 0.101 0.017 0.218 0.050 0.352 0.117 0.134 0.050 0.235 0.084 0.318 0.101-0.017-0.017-0.050-0.034-0.084-0.050-0.017-0.017-0.050-0.034-0.084-0.050s-0.067-0.034-0.101-0.050c-0.201-0.101-0.385-0.184-0.536-0.352-0.117-0.117-0.134-0.218-0.168-0.318-0.050-0.285-0.184-0.436-0.151-0.452 0.017-0.034 0.486 0.201 0.653 0.385 0.117 0.134 0.134 0.235 0.168 0.318v0.017c0.034 0.101 0.134 0.201 0.285 0.302 0.017 0.017 0.034 0.034 0.067 0.034-0.034-0.050-0.067-0.101-0.101-0.151 0-0.017 0-0.017-0.017-0.034s-0.034-0.017-0.050-0.034c-0.017-0.017-0.034-0.034-0.050-0.050-0.017-0.034-0.034-0.067-0.050-0.101-0.034-0.101-0.050-0.184-0.017-0.251 0.017-0.034 0.050-0.084 0.134-0.101 0.134-0.034 0.235 0.050 0.285 0.218 0 0.034 0 0.084 0 0.117s0 0.067-0.017 0.084c0 0.017 0 0.017-0.017 0.034l0.017 0.017c0.067 0.218 0.235 0.385 0.419 0.503-0.235-0.201-0.352-0.653-0.335-0.67 0.034-0.017 0.251 0.117 0.452 0.184 0.117 0.050 0.201 0.101 0.302 0.151 0.067 0.034 0.117 0.084 0.184 0.134 0.050 0.050 0.101 0.084 0.134 0.134l0.017 0.017c0.034 0.034 0.067 0.067 0.084 0.084s0.050 0.034 0.067 0.050c0.067 0.034 0.151 0 0.151 0 0.017 0 0.050-0.017 0.101-0.017 0 0 0-0.017 0.017-0.017 0.017-0.017 0.017-0.017 0.017-0.017 0.034-0.034 0.067-0.050 0.101-0.050 0-0.017 0-0.017 0-0.034 0.017-0.050 0.050-0.101 0.101-0.134 0.017 0 0.034-0.017 0.050-0.017s0.017 0 0.034 0 0.017 0 0.034 0 0.034 0 0.034 0c0.017-0.034 0.034-0.050 0.067-0.067 0 0 0 0 0.017 0 0.067-0.034 0.168-0.017 0.218 0.034 0.034 0.034 0.050 0.067 0.050 0.101 0 0 0 0.017 0 0.034s0 0.034 0 0.050c0 0.017 0 0.050 0.017 0.067 0.050 0 0.084 0 0.134 0h0.017c0 0 0 0 0.017 0s0.050 0 0.067 0.017c0.034 0 0.067 0.017 0.101 0.017 0.034-0.017 0.067-0.017 0.084-0.017s0.050-0.017 0.067-0.017c0 0 0 0 0.017 0h0.017c0.017 0 0.034 0 0.050 0 0-0.034 0.017-0.067 0.017-0.101s0-0.067 0.017-0.084c0-0.017 0.017-0.034 0.034-0.050s0.017-0.017 0.034-0.034c0.050-0.034 0.134-0.050 0.184-0.017l0.017 0.017c0.034 0.017 0.050 0.034 0.050 0.067 0.017 0 0.050 0 0.067 0s0.034 0 0.034 0.017c0.017 0 0.017 0 0.034 0.017 0.050 0.034 0.084 0.084 0.101 0.134v0.017h0.017c0.017 0 0.034 0 0.050 0h0.017c0 0 0.168 0 0.218 0.017l0.168 0.017c0.017-0.017 0.034-0.034 0.067-0.067 0.034-0.050 0.084-0.084 0.134-0.134s0.117-0.101 0.184-0.134c0.101-0.067 0.218-0.084 0.335-0.134 0.335-0.151 0.369-0.335 0.402-0.318s-0.084 0.57-0.302 0.771c0.184-0.117 0.352-0.285 0.419-0.486 0 0 0-0.017 0.017-0.017 0-0.017-0.017-0.017-0.017-0.034 0-0.034-0.017-0.050-0.017-0.084s0-0.067 0-0.117c0.050-0.184 0.151-0.251 0.285-0.218 0.084 0.017 0.117 0.067 0.134 0.101 0.034 0.067 0.034 0.151-0.017 0.251-0.017 0.034-0.034 0.067-0.050 0.101s-0.034 0.050-0.050 0.067c-0.017 0.017-0.034 0.017-0.050 0.034 0 0.017 0 0.017 0 0.034-0.034 0.050-0.067 0.101-0.117 0.168 0.017-0.017 0.050-0.034 0.067-0.050 0.168-0.134 0.268-0.218 0.285-0.318 0.034-0.101 0.050-0.201 0.168-0.318 0.151-0.168 0.184-0.218 0.385-0.318 0.050-0.017 0.268-0.084 0.285-0.050s-0.168 0.101-0.235 0.452c-0.034 0.101-0.050 0.268-0.168 0.385-0.134 0.151-0.251 0.184-0.452 0.285l-0.034 0.017c-0.034 0.017-0.084 0.034-0.117 0.067-0.050 0.034-0.101 0.050-0.134 0.084 0.101-0.017 0.201-0.050 0.335-0.117 0.117-0.050 0.235-0.084 0.352-0.117 0-0.017 0.017-0.034 0.034-0.034 0.034-0.050 0.101-0.084 0.201-0.101 0.168-0.050 0.285 0.017 0.318 0.151 0.067-0.067 0.034-0.017 0.017 0.017z"></path>
<path fill="#fff" style="fill: var(--color1, #fff)" d="M28.080 13.822c0.503-0.235 1.34-0.787 1.675-1.19-0.469-0.151-1.407-0.251-1.943-0.268 1.106-0.754 1.139-2.362 0.821-3.535-0.251 0.938-0.921 1.692-1.374 2.161 0.034 0.452-0.101 1.257-0.352 1.742 0.369 0.134 0.787 0.352 1.089 0.57-0.201 0.251-0.637 0.653-0.905 0.854 0.235 0.235 0.62 0.687 0.787 0.938-0.251 0.184-0.804 0.402-1.089 0.503 0.134 0.285 0.335 0.804 0.402 1.173-0.318 0.050-0.771 0.084-1.24 0.084 0.017 0.352-0.034 0.888-0.084 1.206-0.436-0.034-0.938-0.218-1.173-0.318-0.117 0.469-0.419 0.938-0.436 0.972-0.419-0.452-0.804-0.637-1.173-0.62v-0.302c0.369-0.017 0.754 0.151 1.055 0.436 0.134-0.235 0.268-0.687 0.318-0.921 0.268 0.151 0.687 0.302 1.072 0.352 0.034-0.318 0.067-0.754 0.017-1.106 0.369 0.034 0.787 0.034 1.19-0.050-0.067-0.302-0.318-0.804-0.486-1.072 0.385-0.101 0.838-0.285 1.072-0.419-0.184-0.251-0.536-0.653-0.771-0.854 0.285-0.184 0.704-0.536 0.871-0.754-0.285-0.184-0.704-0.402-1.039-0.519 0.452-0.653 0.57-1.943 0.469-2.53-0.419 1.357-1.608 2.362-2.329 2.831-0.034 0.017-0.067 0.050-0.101 0.084s-0.168 0.201-0.101 0.402c0.017 0.050 0.017 0.117 0.034 0.151 0.050 0.268 0.050 0.67-0.335 1.039-0.318 0.318-0.737 0.318-0.972 0.302v-0.72c0-0.101-0.084-0.168-0.168-0.168h-0.486l-0.218-0.251c0 0 0.235 0.017 0.503-0.017 0.268-0.017 0.553-0.151 0.553-0.151s-0.302 0-0.436-0.034c-0.151-0.034-0.519-0.168-0.821-0.519-0.101-0.134-0.201-0.268-0.268-0.402-0.285-0.235-0.553-0.553-0.754-0.988-0.117-0.285-0.201-0.72-0.218-1.005-0.084 0.084-0.201 0.201-0.335 0.369-0.218 0.302-0.335 0.737-0.335 0.737l-0.084 0.318-0.168-0.285c-0.017-0.017-0.235-0.385-0.268-0.888-0.017-0.218 0-0.436 0.017-0.603-0.084 0.050-0.168 0.101-0.268 0.168-0.402 0.285-0.62 0.603-0.62 0.603-0.218 0.268-0.318 0.486-0.369 0.62-0.050-0.117-0.151-0.335-0.369-0.62 0 0-0.218-0.318-0.62-0.603-0.101-0.067-0.184-0.117-0.268-0.168 0.017 0.168 0.034 0.385 0.017 0.603-0.034 0.503-0.268 0.871-0.268 0.888l-0.168 0.285-0.050-0.285c0 0-0.117-0.436-0.335-0.737-0.117-0.168-0.235-0.285-0.335-0.369-0.034 0.285-0.101 0.72-0.218 1.005-0.184 0.436-0.469 0.754-0.754 0.988-0.067 0.134-0.151 0.285-0.268 0.402-0.302 0.352-0.67 0.486-0.821 0.519s-0.436 0.034-0.436 0.034c0 0 0.302 0.134 0.553 0.151 0.268 0.017 0.503 0.017 0.503 0.017l-0.218 0.251h-0.486c-0.101 0-0.168 0.084-0.168 0.168v0.72c-0.235 0.017-0.653 0.017-0.972-0.302-0.385-0.369-0.385-0.771-0.335-1.039 0.017-0.050 0.034-0.101 0.034-0.151 0.067-0.218-0.067-0.385-0.101-0.402-0.034-0.034-0.067-0.050-0.101-0.084-0.737-0.503-1.91-1.508-2.329-2.865-0.101 0.586 0.017 1.876 0.469 2.53-0.335 0.134-0.754 0.335-1.039 0.519 0.184 0.201 0.603 0.553 0.871 0.754-0.235 0.201-0.586 0.586-0.771 0.854 0.235 0.134 0.704 0.318 1.072 0.419-0.168 0.285-0.436 0.787-0.486 1.072 0.402 0.084 0.821 0.084 1.19 0.050-0.050 0.352-0.017 0.787 0.017 1.106 0.385-0.050 0.787-0.201 1.072-0.352 0.050 0.235 0.201 0.687 0.318 0.921 0.302-0.285 0.687-0.436 1.056-0.436v0.302c-0.352 0-0.754 0.184-1.173 0.62-0.017-0.017-0.302-0.486-0.436-0.972-0.235 0.117-0.737 0.285-1.173 0.318-0.067-0.318-0.101-0.854-0.084-1.206-0.469 0-0.905-0.034-1.24-0.084 0.050-0.369 0.251-0.888 0.402-1.173-0.285-0.101-0.838-0.318-1.089-0.503 0.168-0.251 0.553-0.704 0.787-0.938-0.268-0.218-0.704-0.603-0.905-0.854 0.302-0.235 0.737-0.436 1.089-0.57-0.251-0.486-0.402-1.29-0.352-1.742-0.452-0.469-1.123-1.223-1.374-2.161-0.318 1.173-0.285 2.798 0.821 3.535-0.536 0.017-1.474 0.117-1.943 0.268 0.318 0.385 1.173 0.955 1.675 1.19-0.385 0.151-1.106 0.536-1.391 0.804 0.385 0.235 1.206 0.503 1.608 0.586-0.235 0.184-0.704 0.72-0.871 1.022 0.318 0.101 0.988 0.184 1.424 0.218-0.134 0.285-0.285 0.787-0.335 1.122 0.218 0.017 0.921-0.017 1.257-0.101-0.034 0.285-0.017 0.804 0.034 1.022 0.352-0.050 0.838-0.184 1.056-0.285 0.067 0.251 0.302 0.804 0.385 0.938 0.151-0.034 0.318-0.084 0.486-0.134 0.452-0.168 0.972 0.034 1.173 0.469 0.335 0.771 0.201 1.675-0.436 1.491-0.737 0.117-0.235 1.055-0.653 1.357 0.57 0.385 0.754-0.536 1.458-0.385-0.067 0.352-0.067 0.972-0.017 1.223 0.235-0.184 0.553-0.318 0.771-0.335-0.050 0.201-0.101 0.67-0.017 0.972 0.151-0.117 1.089-0.352 1.089-0.352s-0.369 0.754-0.134 1.474c0.117 0.101 0.988-0.318 0.988-0.57 0.017 0.302-0.335 0.972-0.888 1.089 0.603 0.586 1.139 0.57 1.206 0.57 0.084 0 0.168-0.017 0.251-0.050-0.050 0.168-0.067 0.385-0.034 0.536 0.034 0 0.067 0 0.117 0 0.151 0 0.285-0.017 0.402-0.084 0.017 0.151 0.084 0.352 0.201 0.486 0.017 0.034 0.050 0.050 0.067 0.067 0.134 0 0.469-0.151 0.536-0.251 0.067 0.101 0.402 0.251 0.536 0.251 0.034-0.017 0.050-0.050 0.067-0.067 0.117-0.134 0.184-0.318 0.201-0.486 0.117 0.067 0.251 0.084 0.402 0.084 0.034 0 0.067 0 0.117 0 0.034-0.151 0.017-0.352-0.034-0.536 0.084 0.034 0.168 0.050 0.251 0.050s0.603 0.017 1.206-0.57c-0.553-0.117-0.921-0.787-0.888-1.089 0.017 0.268 0.871 0.67 0.988 0.57 0.235-0.72-0.134-1.474-0.134-1.474s0.938 0.235 1.089 0.352c0.084-0.302 0.034-0.771-0.017-0.972 0.218 0.017 0.536 0.151 0.771 0.335 0.050-0.251 0.067-0.871-0.017-1.223 0.704-0.151 0.871 0.771 1.458 0.385-0.419-0.302 0.101-1.223-0.653-1.357-0.653 0.184-0.771-0.72-0.436-1.491 0.184-0.436 0.72-0.637 1.173-0.469 0.168 0.067 0.335 0.101 0.486 0.134 0.084-0.134 0.318-0.67 0.385-0.938 0.235 0.084 0.72 0.235 1.055 0.285 0.050-0.218 0.050-0.737 0.034-1.022 0.352 0.084 1.055 0.117 1.257 0.101-0.034-0.335-0.201-0.838-0.335-1.122 0.419-0.017 1.089-0.117 1.424-0.218-0.168-0.285-0.637-0.821-0.871-1.022 0.385-0.084 1.223-0.352 1.608-0.586-0.251-0.268-0.955-0.653-1.357-0.804zM22.685 21.328c-0.017 0.050-0.050 0.101-0.084 0.168-0.017 0.017-0.017 0.034-0.034 0.050-0.034 0.034-0.050 0.084-0.084 0.117-0.017 0.017-0.034 0.050-0.050 0.067-0.050 0.050-0.084 0.101-0.134 0.168-0.034 0.034-0.067 0.067-0.101 0.101s-0.050 0.050-0.084 0.084c-0.034 0.034-0.084 0.084-0.134 0.117-0.017 0.017-0.050 0.050-0.067 0.067-0.117 0.101-0.235 0.184-0.352 0.285-0.168 0.117-0.335 0.235-0.519 0.335-0.067 0.034-0.134 0.067-0.201 0.101-1.491 0.771-2.245 1.357-2.463 1.541h-0.017c-0.218-0.184-0.955-0.787-2.463-1.541-0.067-0.034-0.134-0.067-0.201-0.101-0.184-0.101-0.369-0.218-0.519-0.335-0.134-0.084-0.251-0.184-0.352-0.285-0.034-0.017-0.050-0.050-0.067-0.067-0.050-0.034-0.084-0.084-0.134-0.117-0.034-0.034-0.050-0.050-0.084-0.084s-0.067-0.067-0.101-0.101c-0.050-0.050-0.101-0.117-0.134-0.168-0.017-0.017-0.034-0.050-0.050-0.067-0.034-0.034-0.067-0.084-0.084-0.117-0.017-0.017-0.034-0.034-0.034-0.050-0.034-0.050-0.067-0.117-0.084-0.168-0.201-0.436-0.168-0.787-0.168-0.787v-5.83c0-0.101 0.084-0.168 0.168-0.168h8.645c0.101 0 0.168 0.084 0.168 0.168v5.83c-0.017-0.017 0.017 0.352-0.184 0.787z"></path>
<path fill="#fff" style="fill: var(--color1, #fff)" d="M22.501 5.328c0.117 0 0.218-0.101 0.218-0.218s-0.101-0.218-0.218-0.218c-0.117 0-0.218 0.101-0.218 0.218s0.101 0.218 0.218 0.218z"></path>
<path fill="#fff" style="fill: var(--color1, #fff)" d="M22.501 6.568c0.151 0 0.268-0.57 0.268-0.838 0-0.151-0.117-0.251-0.268-0.251s-0.268 0.101-0.268 0.251c0 0.285 0.117 0.838 0.268 0.838z"></path>
<path fill="#fff" style="fill: var(--color1, #fff)" d="M22.366 4.524h0.285l-0.050-0.352 0.369 0.034v-0.302l-0.369 0.050 0.050-0.369h-0.285l0.034 0.369-0.352-0.050v0.302l0.352-0.034-0.034 0.352z"></path>
<path fill="#fff" style="fill: var(--color1, #fff)" d="M21.21 7.238c0.101 0.017 0.201 0.034 0.302 0.050 0.017 0 0.017 0 0.034 0h0.050c0.017 0 0.034 0 0.050 0h0.050c0.034 0 0.067 0 0.084 0s0.034 0 0.067 0c0.034 0 0.050 0 0.084 0 0.268-0.017 0.553-0.067 0.787-0.134 0.251-0.050 0.553-0.117 0.838-0.134h0.017c0.017 0 0.034 0 0.050 0h0.168c0.017 0 0.017 0 0.034 0 0.084-0.285 0.168-0.637 0.168-0.821 0-0.402-0.218-0.838-0.988-0.972 0 0.486-0.235 1.659-0.519 1.659h-0.034c-0.285 0-0.519-1.173-0.519-1.659-0.771 0.134-0.988 0.57-0.988 0.972 0 0.218 0.101 0.67 0.201 0.972 0.050 0.017 0.050 0.050 0.067 0.067z"></path>
<path fill="#fff" style="fill: var(--color1, #fff)" d="M25.215 5.127c0.017 0-0.218-0.553 0.151-0.687 0.369-0.151-0.134-0.050 0.134-0.804 0.302-0.888 0.972-0.67 0.972-0.67-0.469-0.369-0.821-0.335-1.089-0.134-0.151 0.117-0.385 0.385-0.553 0.921-0.218 0.687 0.017 1.307 0.385 1.374z"></path>
<path fill="#fff" style="fill: var(--color1, #fff)" d="M26.924 3.837c0.034 1.106 1.876 1.558 1.876 1.558s-1.072-0.771-0.854-1.324c0 0 0.704 0.302 1.508 0.168-1.709-0.352-1.156-0.888-1.558-1.324-0.419-0.452-1.106-0.503-1.273-0.519-0.436-0.034-0.452-0.017-0.972 0.084 1.139 0.017 1.257 0.62 1.273 1.357z"></path>
<path fill="#fff" style="fill: var(--color1, #fff)" d="M26.672 5.897c0.251-0.871-0.201-1.257-0.201-1.257-0.134-0.151-0.838-0.134-1.089 0.034 0 0 0.67-0.017 0.57 0.955s-1.424 1.156-1.793 1.206l-0.034 0.117c0.62 0.017 2.312-0.184 2.547-1.056z"></path>
<path fill="#fff" style="fill: var(--color1, #fff)" d="M19.736 5.881h-0.687c0.335 0.921 1.29 1.24 1.927 1.324l-0.034-0.101c-0.637-0.268-0.988-0.536-1.206-1.223z"></path>
<path fill="#fff" style="fill: var(--color1, #fff)" d="M14.191 5.328c0.117 0 0.218-0.101 0.218-0.218s-0.101-0.218-0.218-0.218c-0.117 0-0.218 0.101-0.218 0.218s0.101 0.218 0.218 0.218z"></path>
<path fill="#fff" style="fill: var(--color1, #fff)" d="M14.191 6.568c0.151 0 0.268-0.57 0.268-0.838 0-0.151-0.117-0.251-0.268-0.251s-0.268 0.101-0.268 0.251c0 0.285 0.117 0.838 0.268 0.838z"></path>
<path fill="#fff" style="fill: var(--color1, #fff)" d="M14.040 4.524h0.285l-0.034-0.352 0.352 0.034v-0.302l-0.352 0.050 0.034-0.369h-0.285l0.050 0.369-0.369-0.050v0.302l0.369-0.034-0.050 0.352z"></path>
<path fill="#fff" style="fill: var(--color1, #fff)" d="M12.85 7.037h0.184c0.017 0 0.034 0 0.050 0h0.017c0.302 0.017 0.586 0.084 0.838 0.134s0.536 0.117 0.787 0.134c0.034 0 0.050 0 0.084 0 0.017 0 0.034 0 0.067 0s0.067 0 0.084 0h0.050c0.017 0 0.034 0 0.050 0h0.050c0.017 0 0.017 0 0.034 0 0.101-0.017 0.218-0.034 0.302-0.050 0-0.017 0.017-0.034 0.017-0.050 0.101-0.302 0.201-0.754 0.201-0.972 0-0.402-0.218-0.838-0.988-0.972 0 0.486-0.235 1.659-0.519 1.659h-0.034c-0.285 0-0.519-1.173-0.519-1.659-0.771 0.134-0.988 0.57-0.988 0.972 0 0.184 0.084 0.536 0.168 0.821 0.050-0.017 0.067-0.017 0.067-0.017z"></path>
<path fill="#fff" style="fill: var(--color1, #fff)" d="M10.22 2.965c0 0 0.67-0.201 0.972 0.67 0.268 0.754-0.235 0.653 0.134 0.804s0.134 0.687 0.134 0.687h0.017c0.369-0.067 0.603-0.687 0.385-1.391-0.168-0.536-0.402-0.787-0.553-0.921-0.268-0.184-0.62-0.218-1.089 0.151z"></path>
<path fill="#fff" style="fill: var(--color1, #fff)" d="M8.729 4.054c0.218 0.57-0.854 1.324-0.854 1.324s1.843-0.452 1.876-1.558c0.017-0.737 0.134-1.34 1.257-1.357-0.503-0.117-0.536-0.117-0.972-0.084-0.151 0.017-0.838 0.067-1.273 0.519-0.419 0.436 0.151 0.972-1.558 1.324 0.821 0.134 1.525-0.168 1.525-0.168z"></path>
<path fill="#fff" style="fill: var(--color1, #fff)" d="M10.739 5.629c-0.101-0.972 0.57-0.955 0.57-0.955-0.251-0.168-0.955-0.184-1.089-0.034 0 0-0.452 0.369-0.201 1.257 0.251 0.871 1.927 1.072 2.547 1.072l-0.034-0.117c-0.369-0.050-1.709-0.251-1.793-1.223z"></path>
<path fill="#fff" style="fill: var(--color1, #fff)" d="M17.642 5.881h-0.687c-0.218 0.704-0.57 0.955-1.223 1.223l-0.034 0.101c0.653-0.101 1.608-0.419 1.943-1.324z"></path>
<path fill="#fff" style="fill: var(--color1, #fff)" d="M19.217 9.952c-0.201 0.318-0.369 0.637-0.486 0.955 0.117-0.117 0.268-0.251 0.452-0.385 0.302-0.218 0.553-0.318 0.57-0.335l0.268-0.117-0.067 0.285c0 0-0.101 0.419-0.067 0.804 0.017 0.168 0.050 0.318 0.101 0.452 0.067-0.151 0.151-0.335 0.268-0.486 0.318-0.436 0.603-0.586 0.62-0.586l0.201-0.101 0.017 0.218c0 0 0.050 0.771 0.218 1.156 0.302 0.687 0.854 1.039 1.206 1.206-0.050-0.050-0.101-0.101-0.168-0.168-0.151-0.168-0.335-0.469-0.419-1.106-0.067-0.536 0.134-1.072 0.218-1.24 0.034 0.151 0.101 0.268 0.168 0.302 0 0-0.017-0.117 0.017-0.268 0.050-0.369 0.469-0.921 0.988-1.273 0.117-0.084 0.201-0.134 0.285-0.184s0.151-0.101 0.251-0.151c-0.101 0.017-0.251 0.034-0.318 0.050h-0.034c-0.067 0-0.184 0.017-0.302 0.017-0.251 0-0.57-0.034-0.804-0.235-0.235-0.184-0.335-0.402-0.369-0.553-0.101 0-0.235 0-0.419-0.017-0.201-0.017-0.369-0.050-0.486-0.084-0.251 0.168-0.536 0.235-0.871 0.251-0.034 0-0.101 0-0.151 0 0.101 0.084 0.218 0.151 0.352 0.218h0.017l-0.084 0.034c-0.034 0.034-0.486 0.285-1.173 1.34z"></path>
<path fill="#fff" style="fill: var(--color1, #fff)" d="M23.556 8.092c-0.117-0.017-0.235-0.017-0.369-0.017 0 0.084 0 0.151 0.017 0.218 0.017 0.101 0.067 0.184 0.134 0.235 0.101-0.084 0.184-0.218 0.218-0.436z"></path>
<path fill="#fff" style="fill: var(--color1, #fff)" d="M23.824 7.321c-0.017 0-0.017 0 0 0h-0.050c-0.017 0-0.050 0-0.067 0-0.268 0.017-0.536 0.067-0.787 0.134-0.268 0.067-0.553 0.134-0.854 0.134-0.050 0-0.117 0-0.168 0-0.034 0-0.067 0-0.101 0-0.017 0-0.034 0-0.050 0s-0.050 0-0.067 0c0 0 0 0-0.017 0 0 0 0 0-0.017 0h-0.034c0 0 0 0-0.017 0h-0.017c0 0 0 0-0.017 0 0 0 0 0-0.017 0-0.586-0.084-1.005-0.268-1.19-0.369 0.050 0.050 0.101 0.134 0.184 0.218 0.034 0.034 0.067 0.067 0.101 0.101 0.084 0.067 0.168 0.134 0.268 0.201 0.151 0.067 0.687 0.302 1.424 0.201 0.838-0.117 0.988-0.101 1.19-0.101h0.067c0.285 0.017 0.72 0.218 0.905 0.318 0.084-0.168 0.151-0.335 0.201-0.519-0.050-0.050-0.101-0.101-0.218-0.151-0.034-0.017-0.067-0.034-0.117-0.050-0.084-0.034-0.184-0.050-0.302-0.067-0.117-0.034-0.168-0.050-0.235-0.050z"></path>
<path fill="#fff" style="fill: var(--color1, #fff)" d="M26.153 10.069c0.017-0.017 0-0.017 0 0-0.034 0-0.318 0.168-0.955-0.251-0.62-0.402-1.106-0.586-1.357-0.62-0.067 0.034-0.117 0.067-0.168 0.101-0.084 0.050-0.168 0.084-0.268 0.168-0.034 0.017-0.067 0.050-0.101 0.067 0.017 0 0.034 0.017 0.067 0.017 0.586 0.050 1.055 0.419 1.106 0.536 0 0.017 0.017 0.017 0.017 0 0.067-0.201-0.017-0.352-0.017-0.352s0.268 0.168 0.804 0.486c0.536 0.318 0.787-0.034 0.871-0.151z"></path>
<path fill="#fff" style="fill: var(--color1, #fff)" d="M22.97 8.41c-0.050-0.034-0.084-0.084-0.101-0.151-0.017-0.050-0.034-0.101-0.050-0.151-0.134 0.017-0.302 0.034-0.519 0.067-0.050 0-0.084 0.017-0.134 0.017 0.084 0.184 0.268 0.402 0.62 0.486 0.017 0 0.050 0.017 0.067 0.017s0.050 0 0.067 0.017c0.151 0.017 0.285 0.034 0.419 0.034 0.218 0 0.503-0.034 0.754-0.101 0.050-0.067 0.117-0.151 0.168-0.235-0.017-0.017-0.034-0.017-0.067-0.034-0.050-0.034-0.235-0.134-0.318-0.168-0.034 0.101-0.084 0.201-0.168 0.251-0.101 0.067-0.218 0.117-0.352 0.117s-0.251-0.034-0.352-0.101c0-0.034-0.017-0.050-0.034-0.067z"></path>
<path fill="#fff" style="fill: var(--color1, #fff)" d="M24.762 7.941c-0.201 0.519-0.519 0.938-0.754 1.122 1.491-0.402 1.759 0.352 1.759 0.385s0.017 0.034 0.034 0.017c0.034-0.034 0.519-0.57 0.168-1.072-0.302-0.402-0.988-0.452-1.206-0.452zM24.762 8.327c0.050-0.067 0.101-0.201 0.101-0.201 0.117 0 0.318 0.034 0.318 0.168-0.151-0.017-0.302-0.017-0.419 0.034z"></path>
<path fill="#fff" style="fill: var(--color1, #fff)" d="M13.487 8.293c0.017-0.067 0.017-0.134 0.017-0.218-0.134 0-0.251 0-0.369 0.017 0.034 0.218 0.117 0.352 0.235 0.436 0.050-0.050 0.101-0.117 0.117-0.235z"></path>
<path fill="#fff" style="fill: var(--color1, #fff)" d="M15.196 7.573c-0.017 0-0.017 0-0.034 0 0 0 0 0-0.017 0h-0.034c0 0 0 0-0.017 0 0 0 0 0-0.017 0s-0.050 0-0.067 0c-0.017 0-0.034 0-0.050 0-0.034 0-0.067 0-0.101 0-0.050 0-0.117 0-0.168 0-0.285-0.017-0.57-0.067-0.854-0.134-0.268-0.067-0.519-0.117-0.787-0.134-0.017 0-0.050 0-0.067 0h-0.034c-0.067 0-0.117 0-0.168 0.017-0.117 0.017-0.218 0.034-0.302 0.067-0.050 0.017-0.084 0.034-0.117 0.050-0.117 0.067-0.168 0.117-0.218 0.151 0.050 0.184 0.117 0.352 0.201 0.519 0.168-0.101 0.603-0.302 0.905-0.318h0.067c0.201-0.017 0.352-0.034 1.19 0.101 0.737 0.101 1.273-0.117 1.424-0.201 0.101-0.067 0.184-0.134 0.268-0.201 0.034-0.034 0.067-0.067 0.101-0.101 0.084-0.084 0.151-0.168 0.184-0.218-0.285 0.134-0.687 0.318-1.29 0.402z"></path>
<path fill="#fff" style="fill: var(--color1, #fff)" d="M10.538 10.069c0.084 0.117 0.335 0.469 0.871 0.151s0.804-0.486 0.804-0.486c0 0-0.084 0.168-0.017 0.352 0 0.017 0.017 0.017 0.017 0 0.050-0.117 0.519-0.486 1.106-0.536 0.034 0 0.050-0.017 0.067-0.017-0.034-0.017-0.067-0.050-0.101-0.067-0.101-0.067-0.184-0.117-0.268-0.168-0.050-0.034-0.117-0.067-0.168-0.101-0.251 0.050-0.737 0.218-1.357 0.62-0.637 0.419-0.938 0.251-0.955 0.251-0.017-0.017 0-0.017 0 0z"></path>
<path fill="#fff" style="fill: var(--color1, #fff)" d="M12.783 8.209c-0.084 0.034-0.268 0.134-0.318 0.168-0.017 0.017-0.050 0.017-0.067 0.034 0.050 0.084 0.117 0.168 0.168 0.235 0.251 0.067 0.536 0.101 0.754 0.101 0.134 0 0.268-0.017 0.419-0.034 0.017 0 0.050 0 0.067-0.017 0.017 0 0.050-0.017 0.067-0.017 0.352-0.084 0.519-0.285 0.62-0.486-0.034 0-0.084 0-0.134-0.017-0.218-0.034-0.385-0.050-0.519-0.067-0.017 0.050-0.034 0.101-0.050 0.151-0.034 0.050-0.067 0.101-0.101 0.151-0.017 0.017-0.034 0.034-0.050 0.034-0.101 0.067-0.218 0.101-0.352 0.101s-0.268-0.034-0.352-0.117c-0.050-0.034-0.117-0.134-0.151-0.218z"></path>
<path fill="#fff" style="fill: var(--color1, #fff)" d="M10.723 8.394c-0.352 0.486 0.134 1.039 0.168 1.072 0.017 0.034 0.034 0.017 0.034-0.017s0.251-0.787 1.759-0.385c-0.235-0.201-0.57-0.603-0.754-1.123-0.218 0-0.905 0.050-1.206 0.452zM11.929 8.327c-0.117-0.050-0.285-0.050-0.419-0.034 0-0.134 0.201-0.168 0.318-0.168 0 0 0.050 0.134 0.101 0.201z"></path>
<path fill="#fff" style="fill: var(--color1, #fff)" d="M16.62 8.394c-0.050 0-0.117 0-0.151 0-0.335-0.017-0.603-0.084-0.871-0.251-0.101 0.034-0.285 0.067-0.486 0.084-0.168 0.017-0.318 0.017-0.419 0.017-0.050 0.134-0.151 0.352-0.369 0.553-0.235 0.184-0.553 0.235-0.804 0.235-0.117 0-0.218-0.017-0.302-0.017h-0.034c-0.067 0-0.218-0.034-0.318-0.050 0.084 0.067 0.168 0.117 0.251 0.151 0.084 0.050 0.168 0.101 0.285 0.184 0.519 0.369 0.938 0.905 0.988 1.273 0.034 0.134 0.017 0.268 0.017 0.268 0.067-0.050 0.134-0.168 0.168-0.302 0.067 0.168 0.285 0.704 0.218 1.24-0.084 0.637-0.268 0.938-0.419 1.106-0.067 0.067-0.117 0.134-0.168 0.168 0.352-0.168 0.905-0.536 1.206-1.206 0.168-0.385 0.218-1.156 0.218-1.156l0.017-0.218 0.201 0.101c0.017 0 0.302 0.151 0.62 0.586 0.117 0.151 0.201 0.335 0.268 0.486 0.034-0.117 0.084-0.285 0.101-0.452 0.034-0.385-0.067-0.804-0.067-0.804l-0.067-0.285 0.268 0.117c0.017 0 0.268 0.117 0.57 0.335 0.184 0.134 0.335 0.268 0.452 0.385-0.117-0.318-0.285-0.653-0.486-0.955-0.704-1.056-1.139-1.307-1.139-1.307l-0.117-0.067h0.017c0.134-0.067 0.251-0.134 0.352-0.218z"></path>
</symbol>
</defs>
</svg>
